<svg width="129" height="56" viewBox="0 0 129 56" fill="none" xmlns="http://www.w3.org/2000/svg">
<g clip-path="url(#clip0_5166_80245)">
<path d="M92.8106 14C92.9014 14.0283 92.9864 14.0624 93.0771 14.085C93.9956 14.3175 94.5341 15.0772 94.4945 16.1033C94.4604 16.9878 93.7688 17.7588 92.8673 17.9062C92.0056 18.0479 91.1268 17.5377 90.7867 16.6986C90.4352 15.8255 90.7186 14.8277 91.4897 14.3515C91.7391 14.1928 92.0453 14.1134 92.3231 14C92.4875 14 92.6519 14 92.8163 14H92.8106Z" fill="white"/>
<path d="M52.0534 20.8713C52.0534 20.6502 52.0534 20.5028 52.0534 20.3554C52.0534 18.87 52.0534 17.379 52.0591 15.8936C52.0591 15.1962 52.4049 14.6803 53.0229 14.3798C53.6125 14.0964 54.2134 14.1361 54.752 14.5216C55.2453 14.8731 55.455 15.372 55.455 15.9729C55.455 21.0414 55.455 26.1155 55.455 31.1839C55.455 32.3291 55.4437 33.48 55.455 34.6252C55.4607 35.1525 55.2566 35.5437 54.8201 35.8328C53.346 36.8193 51.7132 37.4146 49.9727 37.6924C48.2039 37.9702 46.4464 37.9192 44.7739 37.1878C42.6592 36.2637 41.429 34.6026 40.9357 32.3972C40.76 31.6148 40.6863 30.8041 40.6636 30.0047C40.6182 28.2869 40.5729 26.5634 40.9924 24.8796C41.6841 22.1186 43.6457 20.3724 46.469 20.0096C48.2492 19.7828 49.9671 20.0833 51.6339 20.7182C51.7416 20.7579 51.8493 20.7976 52.0477 20.8713H52.0534ZM52.0534 28.8311C52.0534 27.4478 52.0421 26.0701 52.0647 24.6868C52.0704 24.3183 51.9343 24.1312 51.6169 24.0008C50.2165 23.4055 48.7765 23.0994 47.2401 23.2468C45.7717 23.3828 44.6775 24.2219 44.3487 25.6449C44.1843 26.3423 44.1673 27.0736 44.1162 27.7936C44.0199 29.0806 44.0312 30.3675 44.2807 31.6318C44.5981 33.2192 45.6583 34.2284 47.2231 34.4835C48.8162 34.7443 50.2845 34.3531 51.6849 33.6104C51.9513 33.4687 52.0647 33.2873 52.0591 32.9755C52.0421 31.5921 52.0534 30.2145 52.0534 28.8311Z" fill="white"/>
<path d="M68.2055 27.3401C68.2281 26.382 68.3075 25.4692 67.9163 24.6018C67.4684 23.6096 66.601 23.2638 65.6089 23.1164C64.0611 22.8896 62.5871 23.2411 61.1244 23.6947C60.6878 23.8307 60.2003 23.8931 59.7524 23.8477C59.1741 23.791 58.7773 23.4055 58.6469 22.8159C58.5108 22.2036 58.6979 21.6764 59.1684 21.2738C59.3669 21.1038 59.6107 20.9507 59.8544 20.86C62.3433 19.9245 64.8945 19.5957 67.4968 20.2874C69.7249 20.8826 71.0005 22.3964 71.3746 24.6585C71.471 25.2538 71.5107 25.866 71.5107 26.4727C71.5221 29.2223 71.5107 31.9777 71.5221 34.7273C71.5221 35.3623 71.2839 35.8215 70.734 36.1447C69.2486 37.0177 67.6329 37.5166 65.932 37.7321C64.4467 37.9192 62.9613 37.9419 61.5099 37.528C59.4462 36.944 58.0119 35.7081 57.547 33.5481C56.878 30.4583 58.4938 27.8787 61.5723 27.102C63.4375 26.6314 65.3141 26.7618 67.1793 27.136C67.5081 27.204 67.8369 27.2664 68.2055 27.3401ZM68.2225 32.006C68.2225 31.5241 68.2111 31.0422 68.2225 30.566C68.2338 30.2768 68.1544 30.1124 67.8369 30.0671C67.4684 30.016 67.1056 29.9027 66.7371 29.8346C65.4728 29.6135 64.2085 29.4434 62.9329 29.7326C62.1449 29.9083 61.4419 30.2542 61.0223 30.9855C60.274 32.2895 60.943 33.9903 62.4227 34.5516C63.4375 34.9314 64.4863 34.9201 65.5408 34.7953C66.3459 34.699 67.1169 34.4722 67.8426 34.081C68.1091 33.9393 68.2395 33.7635 68.2225 33.446C68.1941 32.9698 68.2168 32.4879 68.2168 32.006H68.2225Z" fill="white"/>
<path d="M35.3457 27.3004C35.2946 26.5577 35.3173 25.8093 35.1756 25.1007C34.9431 23.9384 34.0247 23.2694 32.7491 23.1107C31.2467 22.9179 29.8123 23.1787 28.4007 23.655C27.9074 23.8194 27.4085 23.9668 26.8869 23.8704C26.3143 23.7627 25.8891 23.4339 25.7587 22.8499C25.617 22.2036 25.7587 21.5686 26.337 21.2398C27.0003 20.8656 27.7317 20.5822 28.4687 20.3781C29.7103 20.0322 30.9972 19.8848 32.2955 19.9415C33.7979 20.0095 35.2549 20.2703 36.5022 21.2058C37.6871 22.0959 38.2711 23.3318 38.4865 24.7548C38.5602 25.2481 38.5829 25.7583 38.5829 26.2572C38.5886 29.0806 38.5715 31.9039 38.5942 34.7273C38.5942 35.4076 38.3391 35.8555 37.7608 36.1787C36.2414 37.0404 34.6086 37.5393 32.8795 37.7377C31.3544 37.9135 29.8407 37.9135 28.361 37.4429C26.1783 36.7456 24.8176 35.2942 24.5511 33.0038C24.2223 30.1521 25.6 28.1281 28.2022 27.2437C29.5345 26.7901 30.9122 26.7164 32.3012 26.8695C33.2083 26.9716 34.0984 27.153 34.9998 27.2947C35.0905 27.3061 35.1812 27.2947 35.357 27.2947L35.3457 27.3004ZM35.3003 32.023C35.3003 31.5071 35.289 30.9912 35.306 30.4809C35.3173 30.2371 35.2379 30.1181 34.9942 30.0727C34.603 29.999 34.2231 29.8913 33.8319 29.8233C32.5733 29.6078 31.3034 29.4321 30.0334 29.7269C29.064 29.9537 28.2136 30.3959 27.9414 31.4334C27.5786 32.7997 28.1342 34.2114 29.9144 34.6819C30.7875 34.9144 31.6776 34.9144 32.562 34.8123C33.3897 34.716 34.1891 34.4948 34.9318 34.098C35.1926 33.9563 35.3287 33.7862 35.3116 33.463C35.2833 32.9868 35.306 32.5049 35.306 32.023H35.3003Z" fill="white"/>
<path d="M73.8805 29.4151C73.8805 27.3061 73.8919 25.197 73.8749 23.088C73.8749 22.4701 74.0903 22.0165 74.6062 21.6707C75.7061 20.9337 76.925 20.5028 78.2063 20.242C80.1679 19.8451 82.1352 19.7317 84.0911 20.2647C86.512 20.928 87.901 22.5381 88.3432 24.9759C88.4566 25.6052 88.4962 26.2572 88.5019 26.8979C88.5189 29.8516 88.5019 32.7997 88.5133 35.7535C88.5133 36.2467 88.4282 36.7059 88.0937 37.0914C87.6288 37.63 86.8748 37.8114 86.2058 37.5563C85.5311 37.3012 85.0776 36.6606 85.0776 35.9292C85.0776 32.9528 85.0776 29.9763 85.0776 27.0056C85.0776 26.6711 85.0493 26.3253 84.9812 25.9964C84.6581 24.4203 83.4448 23.3885 81.829 23.2638C80.3833 23.1504 79.0113 23.3998 77.6847 23.9668C77.4069 24.0858 77.3162 24.2503 77.3162 24.5564C77.3275 28.3265 77.3219 32.1024 77.3162 35.8725C77.3162 36.8817 76.6529 37.6244 75.7288 37.6754C74.7366 37.7321 73.8919 36.9384 73.8862 35.9235C73.8805 33.7578 73.8862 31.5921 73.8862 29.4207L73.8805 29.4151Z" fill="white"/>
<path d="M94.313 28.9899C94.313 31.286 94.313 33.5821 94.313 35.8782C94.313 36.9837 93.5987 37.7491 92.5952 37.7377C91.6201 37.7321 90.866 36.927 90.866 35.8555C90.8604 34.4041 90.866 32.9528 90.866 31.4957C90.866 28.3662 90.866 25.2424 90.866 22.1129C90.866 21.3078 91.1609 20.6729 91.9376 20.3384C92.9581 19.8962 94.143 20.5708 94.2904 21.6763C94.313 21.8521 94.3187 22.0278 94.3187 22.2036C94.3187 24.4657 94.3187 26.7278 94.3187 28.9842L94.313 28.9899Z" fill="white"/>
</g>
<defs>
<clipPath id="clip0_5166_80245">
<rect width="70" height="23.8625" fill="white" transform="translate(24.5001 14)"/>
</clipPath>
</defs>
</svg>
