<svg width="125" height="30" viewBox="0 0 125 30" fill="none" xmlns="http://www.w3.org/2000/svg">
<g clip-path="url(#clip0_5413_86406)">
<path d="M48.686 18.179L47.0889 22.616C47.0889 22.7942 46.9113 22.7942 46.9113 22.7942H44.4267C44.249 22.7942 44.249 22.7942 44.249 22.616C45.6685 18.8895 47.7985 12.5003 49.3956 8.24036C49.3956 8.06358 49.5734 7.70831 49.5734 6.82098C49.5734 6.64334 49.5734 6.64334 49.751 6.64334H53.1228C53.3005 6.4657 53.3005 6.64334 53.3005 6.64334C55.0743 11.7899 57.2045 17.2918 58.9792 22.4392C58.9792 22.6161 58.9792 22.6161 58.8024 22.6161H55.9618C55.7849 22.6161 55.7849 22.6161 55.7849 22.4392L54.187 18.0024H48.686V18.179ZM53.6548 15.6947C53.1228 14.0976 51.8802 10.7258 51.5256 8.95103C51.1705 10.5482 50.1054 13.3878 49.3957 15.6947H53.6548ZM60.5772 16.7597C60.5772 13.2102 63.2393 10.3704 67.4975 10.3704C68.0313 10.3704 68.5634 10.3704 68.9188 10.548V5.22384C68.9188 5.0462 68.9188 5.0462 69.0955 5.0462H71.7576C71.9344 5.0462 71.9344 5.0462 71.9344 5.22384V21.3734C71.9344 21.5516 71.9344 21.5516 71.7576 21.5516C70.1598 22.2606 68.3848 22.7942 66.7887 22.7942C63.0608 22.9712 60.5772 21.0197 60.5772 16.7597ZM68.7401 13.0325C68.3848 12.8549 67.8528 12.8549 67.3206 12.8549C65.0139 12.8549 63.5944 14.2752 63.5944 16.7597C63.5944 19.5985 65.1907 20.6644 67.144 20.6644C67.676 20.6644 68.3848 20.4859 68.9186 20.4859V13.0325H68.7401ZM86.8428 16.5829C86.8428 20.486 84.3575 22.9712 80.808 22.9712C76.5497 22.9712 74.775 19.7771 74.775 16.7597C74.775 13.0325 77.2586 10.548 80.9865 10.548C84.7129 10.3704 86.8428 13.2102 86.8428 16.5829V16.5829ZM77.7924 16.5829C77.7924 19.0665 78.8566 20.6645 80.8082 20.6645C82.406 20.6645 83.6488 19.5986 83.6488 16.5829C83.6488 14.2752 82.7614 12.5005 80.6315 12.5005C79.0333 12.6772 77.7924 14.0976 77.7924 16.5829V16.5829ZM92.1671 5.22384C92.344 5.22384 92.344 5.22384 92.344 5.40148V11.0801C93.2312 10.7257 94.1187 10.548 95.006 10.548C98.3788 10.548 100.509 13.0325 100.509 16.2277C100.509 20.4859 97.1359 23.148 93.2312 23.148C91.9902 23.148 90.7476 22.9711 89.505 22.616C89.3283 22.616 89.3283 22.4391 89.3283 22.4391V5.40148C89.3283 5.22384 89.3283 5.22384 89.505 5.22384H92.1671ZM94.474 12.8549C93.7651 12.8549 93.0546 13.0325 92.5224 13.2102V20.4859C92.8777 20.6644 93.4097 20.6644 93.9418 20.6644C95.7166 20.6644 97.8465 19.2449 97.8465 16.4042C97.6681 14.0976 96.2487 12.8549 94.474 12.8549V12.8549ZM106.188 17.2918C106.188 19.245 107.429 20.4859 109.915 20.4859C110.802 20.4859 111.866 20.309 112.932 19.9539C112.932 19.9539 113.109 19.9539 113.109 20.1324V22.0839C113.109 22.2606 113.109 22.2606 112.932 22.4391C112.045 22.9711 110.802 23.148 109.204 23.148C104.767 23.148 102.992 20.1324 102.992 16.9362C102.992 13.3877 105.122 10.5479 108.85 10.5479C112.577 10.5479 113.996 13.3877 113.996 15.6945C113.996 16.7596 113.819 17.2916 113.819 17.2916H106.188V17.2918ZM110.091 15.3393C110.979 15.3393 111.157 15.1627 111.157 15.1627V14.8073C111.157 14.0976 110.625 12.5005 108.672 12.5005C107.076 12.5005 106.188 13.7422 106.01 15.3393H110.091Z" fill="white"/>
<path d="M21.6812 0.07724L34.1044 29.7149V0.07724H21.6812ZM0.562042 0.07724V29.7149L12.9852 0.07724H0.562042ZM11.9201 23.6818H17.5997L20.0842 29.7149H25.2308L17.2445 10.9024L11.9201 23.6818Z" fill="white"/>
</g>
<defs>
<clipPath id="clip0_5413_86406">
<rect width="124" height="29.7922" fill="white" transform="translate(0.500122)"/>
</clipPath>
</defs>
</svg>
