<svg width="40" height="40" viewBox="0 0 40 40" fill="none" xmlns="http://www.w3.org/2000/svg">
<g clip-path="url(#clip0_14006_4937)">
<circle cx="20.3328" cy="19.6296" r="19.6296" fill="#FFE9E2"/>
<path d="M20.4835 27.7055C20.1811 27.7055 19.8786 27.6299 19.6266 27.4913C18.1647 26.6973 15.5812 25.8404 13.9555 25.6261L13.7161 25.5883C12.481 25.4371 11.498 24.3281 11.498 23.0553V13.3515C11.498 12.6331 11.8005 11.94 12.3172 11.4611C12.8465 10.9822 13.527 10.7428 14.258 10.8058C16.0979 10.957 18.7696 11.8392 20.3449 12.8222L20.4709 12.8978L20.5214 12.86C22.1092 11.8644 24.7809 10.9696 26.6334 10.8058C26.6587 10.8058 26.7342 10.8058 26.7594 10.8058C27.4148 10.7428 28.1205 10.9948 28.6372 11.4611C29.1665 11.94 29.4564 12.6079 29.4564 13.3389V23.03C29.4564 24.2903 28.4733 25.3993 27.2257 25.5631L26.9611 25.6009C25.348 25.8152 22.7519 26.6721 21.3152 27.4661C21.0758 27.6425 20.786 27.7055 20.4835 27.7055ZM14.0437 12.7087C13.8673 12.7087 13.716 12.7718 13.6026 12.8726C13.464 12.9986 13.401 13.1751 13.401 13.3641V23.0679C13.401 23.3703 13.6783 23.6854 13.9681 23.7232L14.2076 23.761C16.0475 24.013 18.8704 24.933 20.5087 25.8278C22.0336 24.9456 24.8691 24.0004 26.7217 23.761L26.9989 23.7232C27.2887 23.6854 27.566 23.3703 27.566 23.0679V13.3767C27.566 13.175 27.4904 13.0112 27.3644 12.8852C27.2258 12.7592 27.0493 12.7088 26.8477 12.7214C26.8225 12.7214 26.7469 12.7214 26.7217 12.7214C25.2598 12.8474 22.8528 13.6539 21.5421 14.4857L21.4161 14.5613C20.8616 14.9015 20.0802 14.9016 19.5509 14.5739L19.3619 14.4605C18.0386 13.6287 15.6316 12.8348 14.1067 12.7087C14.0815 12.7087 14.0689 12.7087 14.0437 12.7087Z" fill="#FF6333"/>
<path d="M20.4823 27.0251C19.9656 27.0251 19.5371 26.5966 19.5371 26.0799V14.0321C19.5371 13.5154 19.9656 13.0869 20.4823 13.0869C20.999 13.0869 21.4275 13.5154 21.4275 14.0321V26.0799C21.4275 26.6092 20.999 27.0251 20.4823 27.0251Z" fill="#FF6333"/>
</g>
<defs>
<clipPath id="clip0_14006_4937">
<rect width="39.2593" height="39.2593" fill="white" transform="translate(0.703125)"/>
</clipPath>
</defs>
</svg>
