<svg width="41" height="40" viewBox="0 0 41 40" fill="none" xmlns="http://www.w3.org/2000/svg">
<rect x="0.851562" y="0.5" width="39.2593" height="39.2593" rx="19.6296" fill="#CFF8FF"/>
<path d="M24.4065 30.681H11.6473C10.7051 30.681 9.92969 29.9056 9.92969 28.9634V16.2041C9.92969 11.866 12.2165 9.5791 16.5547 9.5791H24.4065C28.7447 9.5791 31.0315 11.866 31.0315 16.2041V24.056C31.0315 28.3941 28.7447 30.681 24.4065 30.681ZM16.5547 11.0513C13.041 11.0513 11.4019 12.6904 11.4019 16.2041V28.9634C11.4019 29.1008 11.5099 29.2087 11.6473 29.2087H24.4065C27.9202 29.2087 29.5593 27.5697 29.5593 24.056V16.2041C29.5593 12.6904 27.9202 11.0513 24.4065 11.0513H16.5547Z" fill="#018FA6"/>
<path d="M16.5061 25.7732C16.0448 25.7732 15.6228 25.6064 15.3087 25.3021C14.9357 24.9292 14.7688 24.3992 14.8572 23.8299L15.132 21.8866C15.1909 21.4645 15.4559 20.9247 15.7602 20.6205L20.854 15.5266C22.6011 13.7795 24.1224 14.5647 25.0842 15.5266C25.84 16.2823 26.1835 17.0773 26.105 17.8723C26.0461 18.5201 25.7026 19.1286 25.0842 19.7568L19.9903 24.8507C19.6861 25.1549 19.1561 25.4199 18.7242 25.4886L16.7809 25.7634C16.6926 25.7634 16.5944 25.7732 16.5061 25.7732ZM22.9642 15.9584C22.6011 15.9584 22.2772 16.194 21.9042 16.5571L16.8103 21.651C16.7318 21.7295 16.614 21.9749 16.5944 22.0829L16.3196 24.0262C16.3098 24.1244 16.3196 24.2127 16.3588 24.252C16.3981 24.2912 16.4864 24.301 16.5846 24.2912L18.5279 24.0164C18.6457 23.9968 18.8813 23.879 18.9598 23.8005L24.0537 18.7066C24.4266 18.3336 24.6229 18.0097 24.6524 17.7153C24.6818 17.3816 24.4855 16.989 24.0537 16.5571C23.6218 16.1449 23.2783 15.9584 22.9642 15.9584Z" fill="#018FA6"/>
<path d="M23.8375 20.6996C23.7688 20.6996 23.7001 20.6898 23.6412 20.6702C21.8647 20.1696 20.4416 18.7563 19.941 16.97C19.8331 16.5774 20.0588 16.175 20.4514 16.0572C20.844 15.9493 21.2464 16.175 21.3543 16.5676C21.7175 17.8533 22.748 18.8839 24.0338 19.247C24.4264 19.355 24.6521 19.7672 24.5442 20.1598C24.4558 20.4837 24.1614 20.6996 23.8375 20.6996Z" fill="#018FA6"/>
</svg>
