<svg width="72" height="72" viewBox="0 0 72 72" fill="none" xmlns="http://www.w3.org/2000/svg">
<g clip-path="url(#clip0_14006_5499)">
<path fill-rule="evenodd" clip-rule="evenodd" d="M52.112 37.1096L40.1476 44.0172L28.1833 50.9248L25.703 52.3567V49.4937V35.6785V21.8633V19.0003L28.1833 20.4322L40.1476 27.3398L52.112 34.2474L54.5907 35.6785L52.112 37.1096ZM36.0095 0.864258C26.3961 0.864258 17.6924 4.7611 11.3923 11.0612C5.09216 17.3614 1.19531 26.0651 1.19531 35.6785C1.19531 45.2919 5.09216 53.9956 11.3923 60.2958C17.6924 66.5959 26.3961 70.4927 36.0095 70.4927C45.623 70.4927 54.3267 66.5959 60.6268 60.2958C66.9269 53.9956 70.8238 45.2919 70.8238 35.6785C70.8238 26.0651 66.9269 17.3614 60.6268 11.0612C54.3267 4.7611 45.623 0.864258 36.0095 0.864258ZM58.2825 13.4055C52.5825 7.70553 44.7077 4.1799 36.0095 4.1799C27.3114 4.1799 19.4366 7.70553 13.7366 13.4055C8.03659 19.1055 4.51095 26.9802 4.51095 35.6785C4.51095 44.3767 8.03659 52.2515 13.7366 57.9515C19.4366 63.6515 27.3114 67.1771 36.0095 67.1771C44.7077 67.1771 52.5825 63.6515 58.2825 57.9515C63.9825 52.2515 67.5081 44.3767 67.5081 35.6785C67.5081 26.9802 63.9825 19.1055 58.2825 13.4055Z" fill="#070425"/>
</g>
<defs>
<clipPath id="clip0_14006_5499">
<rect width="70.7337" height="70.7337" fill="white" transform="translate(0.642578 0.311523)"/>
</clipPath>
</defs>
</svg>
