<svg width="129" height="56" viewBox="0 0 129 56" fill="none" xmlns="http://www.w3.org/2000/svg">
<g clip-path="url(#clip0_5166_80254)">
<rect width="112" height="48" transform="translate(8.5 4)" fill="white" fill-opacity="0.01"/>
<path d="M39.7553 14.1042C40.6887 13.9634 41.7627 13.8753 42.5551 14.4564C43.048 14.8261 43.2241 15.4953 43.1889 16.0942C43.2241 17.0803 42.7664 18.1369 41.8861 18.6477C41.1112 19.0703 40.1781 19.1054 39.3152 19.0174C38.7342 18.9471 38.1532 18.6302 37.8538 18.1018C37.1846 16.5697 38.0122 14.4036 39.7553 14.1042ZM11.8291 15.2137C11.8818 14.6853 12.3573 14.2099 12.9031 14.2276C16.9707 14.2276 21.0205 14.2451 25.0704 14.2276C25.5106 14.1924 25.986 14.386 26.1972 14.7734C26.4965 15.3017 26.2324 15.8828 26.1972 16.4288C26.0741 17.1683 26.1092 18.1546 25.2465 18.4363C22.2883 18.5243 19.3301 18.4363 16.3719 18.4715C16.0902 20.3381 15.8261 22.1872 15.5443 24.0362C15.5443 24.1067 15.562 24.2654 15.562 24.3356C17.7277 24.318 19.8935 24.3356 22.0592 24.318C22.658 24.2828 23.2917 24.7937 23.2389 25.4275C23.1862 26.0791 23.0453 26.713 22.9573 27.3647C22.8867 27.8048 22.5346 28.2099 22.0768 28.298C19.6645 28.3508 17.2169 28.2452 14.8048 28.3508C14.4173 31.0099 13.9595 33.6689 13.5545 36.3282C13.5018 36.8566 13.079 37.3144 12.5508 37.3318C11.5473 37.3496 10.5435 37.3496 9.53994 37.3318C8.88845 37.3496 8.36017 36.6273 8.53617 36.0111C9.61058 29.0729 10.7198 22.1522 11.8291 15.2137V15.2137ZM29.7187 14.2626C30.6344 14.1923 31.5676 14.2451 32.4833 14.2276C33.0468 14.1924 33.6102 14.6325 33.6629 15.2137C33.6629 15.6715 33.5396 16.1294 33.4869 16.5872C32.7473 21.3068 31.9902 26.0264 31.2506 30.746C31.145 31.5032 30.9513 32.3132 31.1802 33.0881C31.4444 33.8629 32.6239 33.5283 32.9057 34.3383C33.0818 34.9899 32.888 35.6767 32.8352 36.3459C32.7825 37.2264 31.7788 37.42 31.0922 37.614C29.5956 37.8957 27.7818 37.6844 26.7077 36.4515C25.933 35.5536 25.8801 34.2855 26.0387 33.1586C26.9719 27.1711 27.9051 21.1837 28.856 15.1785C28.9089 14.7382 29.261 14.3332 29.7187 14.2626V14.2626ZM64.6706 15.2137C64.7233 14.6853 65.1989 14.2276 65.7271 14.2276H68.4035C69.0726 14.2099 69.6186 14.932 69.46 15.5658C68.8438 19.4753 68.2099 23.3849 67.5937 27.2941C68.5269 27.1533 69.5834 26.9772 70.2349 26.2201C71.3265 24.9872 72.2247 23.561 72.8937 22.0642C73.1225 21.4829 73.2458 20.6377 74.003 20.532C75.0067 20.4968 76.0278 20.5143 77.0315 20.532C77.7183 20.5143 78.2289 21.2892 78 21.9231C77.7359 22.8567 77.2957 23.7194 76.8379 24.5471C75.8166 26.2025 74.6898 27.8402 73.2106 29.1433C73.8621 31.098 74.6897 33 75.4116 34.9196C75.6229 35.5535 76.1337 36.2931 75.6581 36.9096C75.1122 37.6491 74.0909 37.2792 73.3338 37.3672C72.5414 37.2792 71.397 37.6842 70.9567 36.7862C70.1291 34.8666 69.4425 32.8944 68.5972 30.9748C68.1042 30.9923 67.5936 31.0101 67.1005 30.9572C67.0655 31.0277 66.995 31.1684 66.9597 31.239C66.6955 33 66.4139 34.7611 66.132 36.522C66.0264 36.9446 65.6918 37.3145 65.2341 37.3498C64.3009 37.385 63.35 37.3672 62.3992 37.3672C61.9941 37.3672 61.6245 37.1031 61.4483 36.7509C61.2723 36.3986 61.3778 35.9937 61.4309 35.6063C62.5224 28.8087 63.5965 22.0111 64.6706 15.2137V15.2137ZM113.603 17.1332C113.727 16.64 114.202 16.3055 114.695 16.323C115.399 16.3407 116.121 16.3055 116.843 16.3407C117.424 16.3582 117.882 16.9394 117.811 17.5029C117.706 18.5068 117.459 19.5106 117.389 20.5142C118.076 20.5142 118.78 20.4967 119.467 20.5142C120.083 20.5142 120.594 21.1483 120.488 21.7469C120.4 22.293 120.277 22.8214 120.189 23.367C120.101 23.825 119.713 24.1948 119.273 24.2652C118.428 24.318 117.6 24.23 116.773 24.318C116.421 26.6777 116.033 29.0374 115.663 31.3974C115.61 31.9433 115.575 32.5596 115.892 33.0351C116.368 33.6163 117.195 33.4048 117.864 33.4754C118.393 33.6338 118.727 34.2151 118.639 34.7435C118.551 35.342 118.533 35.9409 118.393 36.5219C118.181 37.1734 117.424 37.2968 116.843 37.4552C115.241 37.878 113.392 37.878 111.966 36.9446C110.645 36.0464 110.434 34.303 110.575 32.8237C110.944 29.9708 111.526 27.1356 111.842 24.2652C111.349 24.2827 110.751 24.3532 110.381 23.9129C109.958 23.4727 110.17 22.8211 110.24 22.275C110.346 21.6939 110.328 20.9367 110.962 20.6197C111.473 20.4259 112.054 20.567 112.6 20.4964C112.934 19.3696 113.251 18.2426 113.603 17.1332V17.1332ZM103.655 22.8388C104.764 21.7294 106.102 20.8136 107.634 20.3559C108.303 20.0564 109.166 20.62 109.148 21.3596C109.025 22.3282 108.796 23.2791 108.638 24.23C108.567 24.7055 108.162 25.1106 107.687 25.1634C105.961 25.4627 104.465 26.5015 103.267 27.7344C102.968 28.1044 102.528 28.4565 102.475 28.9671C102.105 31.4325 101.718 33.898 101.33 36.3634C101.278 36.8916 100.82 37.4025 100.274 37.3673H97.5975C96.9813 37.4025 96.4355 36.7862 96.5059 36.1698C97.2806 31.2917 98.0555 26.4314 98.8125 21.5532C98.8478 21.0602 99.2 20.5847 99.7105 20.5319C100.362 20.4966 101.013 20.5142 101.683 20.5142C102.211 20.5142 102.704 20.9897 102.704 21.5357C102.704 22.2929 102.633 23.0677 102.616 23.8425C103.038 23.5786 103.303 23.1558 103.655 22.8388V22.8388ZM37.8361 20.6023C38.7869 20.4087 39.7729 20.5672 40.7237 20.5143C41.2697 20.4439 41.8507 20.7961 41.9387 21.3421C42.0093 21.8351 41.8682 22.3106 41.8153 22.7861C41.0935 27.312 40.3715 31.8378 39.6672 36.3636C39.6144 36.8745 39.192 37.385 38.646 37.3673C37.6952 37.3673 36.7443 37.3851 35.776 37.3499C35.1772 37.2793 34.737 36.5927 34.8956 36.0114C35.6527 31.3096 36.3747 26.6252 37.1318 21.9232C37.1671 21.4125 37.3079 20.8136 37.8361 20.6023V20.6023ZM94.8155 20.8314C92.1918 20.3382 89.5156 19.986 86.8566 20.2501C84.4796 20.5496 82.0849 21.6239 80.6236 23.5786C78.5986 26.1496 77.9118 29.6013 78.3695 32.8064C78.6162 34.3384 79.2852 35.8882 80.5354 36.8391C81.6975 37.7372 83.2646 37.8604 84.6734 37.6315C86.6453 37.244 88.318 35.9763 89.6916 34.5674C89.7619 35.1661 89.6211 35.7649 89.6563 36.3461C89.6916 36.8918 90.1846 37.4025 90.7304 37.3673H92.5265C93.0547 37.3673 93.495 36.8744 93.5302 36.3635C94.2873 31.5912 95.0444 26.8363 95.784 22.0817C95.8895 21.4829 95.4143 20.9018 94.8155 20.8314V20.8314ZM89.8678 29.1258C89.1634 30.4465 88.1772 31.644 87.0679 32.6653C86.4342 33.1936 85.6241 33.7396 84.7615 33.5636C83.9162 33.3875 83.5112 32.507 83.3176 31.7497C82.8774 29.7774 83.2824 27.6288 84.3915 25.9207C84.8846 25.1281 85.6769 24.5295 86.5926 24.2829C87.8779 23.9658 89.2339 24.1244 90.4841 24.4765L90.5544 24.5471C90.396 26.0791 90.0966 27.5936 89.8678 29.1258V29.1258ZM60.2511 26.4843C60.2334 24.7232 59.7581 22.8742 58.5255 21.5533C57.6804 20.62 56.4125 20.1446 55.18 20.162C53.1374 20.0917 51.2182 21.0956 49.7216 22.4338C49.3869 22.6981 49.1581 23.0855 48.7884 23.2968C48.7884 22.7155 48.8411 22.1344 48.8234 21.5357C48.8411 20.9897 48.3304 20.5143 47.8022 20.5143H46.0061C45.4428 20.5143 44.9849 21.0075 44.9497 21.5533C43.8404 28.5974 42.7136 35.6415 41.6042 42.6856C41.4459 43.3371 42.0094 44.0064 42.6784 43.9888C43.6644 43.9712 44.6681 44.0592 45.6365 43.9182C46.4113 43.7068 46.3936 42.8087 46.517 42.1572C46.7986 40.6075 46.9924 39.0578 47.1684 37.4904C50.6372 38.1596 54.6694 37.7019 57.2578 35.0778C59.3707 32.7711 60.3567 29.5836 60.2511 26.4843V26.4843ZM55.3209 28.2628C55.2153 29.883 54.6342 31.5208 53.5073 32.7005C52.0459 34.0919 49.8271 33.898 48.0312 33.4227C47.9961 33.3698 47.9431 33.2641 47.9255 33.2114C48.2072 31.6793 48.3481 30.1295 48.7004 28.6151C49.6864 26.995 50.8836 25.3571 52.5916 24.4591C53.2255 24.1598 54.0883 24.2302 54.5461 24.8114C55.3209 25.7799 55.3913 27.083 55.3209 28.2628V28.2628Z" fill="white"/>
</g>
<defs>
<clipPath id="clip0_5166_80254">
<rect width="112" height="48" fill="white" transform="translate(8.5 4)"/>
</clipPath>
</defs>
</svg>
