<svg width="41" height="40" viewBox="0 0 41 40" fill="none" xmlns="http://www.w3.org/2000/svg">
<rect x="0.851562" y="0.5" width="39.2593" height="39.2593" rx="19.6296" fill="#BCF5D7"/>
<path d="M16.5547 30.2577C16.2799 30.2577 15.9952 30.189 15.74 30.0516C15.1806 29.7572 14.8371 29.1682 14.8371 28.5401V27.1465C11.873 26.8422 9.92969 24.6632 9.92969 21.5421V15.6533C9.92969 12.277 12.1969 10.0098 15.5732 10.0098H25.388C28.7643 10.0098 31.0315 12.277 31.0315 15.6533V21.5421C31.0315 24.9184 28.7643 27.1856 25.388 27.1856H21.6878L17.5067 29.9731C17.2221 30.1596 16.8884 30.2577 16.5547 30.2577ZM15.5732 11.4722C13.041 11.4722 11.4019 13.1112 11.4019 15.6435V21.5324C11.4019 24.0646 13.041 25.7037 15.5732 25.7037C15.9756 25.7037 16.3093 26.0374 16.3093 26.4398V28.5304C16.3093 28.658 16.3878 28.7168 16.4369 28.7463C16.486 28.7757 16.5841 28.8052 16.6921 28.7365L21.0597 25.8313C21.1775 25.7528 21.3247 25.7037 21.4719 25.7037H25.3978C27.9301 25.7037 29.5691 24.0646 29.5691 21.5324V15.6435C29.5691 13.1112 27.9301 11.4722 25.3978 11.4722H15.5732Z" fill="#0E743D"/>
<path d="M20.4806 20.2375C20.0782 20.2375 19.7445 19.9038 19.7445 19.5014V19.2953C19.7445 18.1568 20.5787 17.5974 20.8928 17.3814C21.2559 17.1361 21.3737 16.9692 21.3737 16.714C21.3737 16.2233 20.9713 15.8209 20.4806 15.8209C19.9898 15.8209 19.5875 16.2233 19.5875 16.714C19.5875 17.1164 19.2538 17.4501 18.8513 17.4501C18.4489 17.4501 18.1152 17.1164 18.1152 16.714C18.1152 15.4087 19.1752 14.3486 20.4806 14.3486C21.7859 14.3486 22.8459 15.4087 22.8459 16.714C22.8459 17.8329 22.0215 18.3924 21.7173 18.5985C21.3345 18.8536 21.2167 19.0205 21.2167 19.2953V19.5014C21.2167 19.9136 20.883 20.2375 20.4806 20.2375Z" fill="#0E743D"/>
<path d="M20.4803 22.6812C20.068 22.6812 19.7441 22.3475 19.7441 21.9451C19.7441 21.5427 20.0778 21.209 20.4803 21.209C20.8827 21.209 21.2164 21.5427 21.2164 21.9451C21.2164 22.3475 20.8925 22.6812 20.4803 22.6812Z" fill="#0E743D"/>
</svg>
