<svg width="129" height="56" viewBox="0 0 129 56" fill="none" xmlns="http://www.w3.org/2000/svg">
<g clip-path="url(#clip0_5166_80246)">
<path d="M49.7987 28.9658L48.1011 28.8098C46.9889 28.7122 46.5401 28.3219 46.5401 27.639C46.5401 26.839 47.223 26.3122 48.5499 26.3122C49.7987 26.3122 50.423 26.8585 50.5206 27.7366H54.5011C54.2474 25.1415 52.4133 23.3073 48.6669 23.3073C44.9206 23.3073 42.6182 25.2976 42.6182 27.9317C42.6182 30.3902 43.9645 31.7366 47.3011 32.0098L48.9791 32.1463C50.2865 32.2439 50.7548 32.6927 50.7548 33.4732C50.7548 34.2927 50.0718 34.8976 48.6669 34.8976C47.3596 34.8976 46.5791 34.3122 46.4426 33.278H42.2474C42.6182 36.1073 44.6084 37.9805 48.6474 37.9805C52.6865 37.9805 54.7352 35.9707 54.7352 33.2585C54.7352 30.6244 53.2913 29.278 49.7987 28.9658Z" fill="white"/>
<path d="M36.0621 23.3073C33.5645 23.3073 32.0816 24.6146 31.3791 27.2878H31.1255V23.5415H27.184V37.7463H31.3791V29.4732C31.3791 27.5805 32.3548 26.5463 34.1108 26.5463C35.8669 26.5463 36.706 27.6195 36.706 29.4537V37.7463H40.9011V28.7122C40.9011 25.278 39.106 23.3073 36.0621 23.3073Z" fill="white"/>
<path d="M23.106 18C21.6816 18 20.6084 18.9366 20.6084 20.361C20.6084 21.7854 21.6621 22.722 23.0865 22.722C24.5109 22.722 25.5645 21.7854 25.5645 20.361C25.5645 18.9366 24.5109 18 23.106 18Z" fill="white"/>
<path d="M25.1938 23.5415H20.9987V37.7463H25.1938V23.5415Z" fill="white"/>
<path d="M61.3304 20.5366H58.6572C58.5791 22.8195 57.6035 23.8146 55.4182 23.9902V26.8781H57.1352V33.122C57.1352 36.2634 58.9304 37.9805 62.5011 37.9805C63.1723 37.9805 63.8416 37.8956 64.4913 37.7268V34.3512C64.1557 34.4068 63.8162 34.4332 63.4767 34.4293C61.9743 34.4293 61.3304 33.8634 61.3304 32.2829V26.8781H65.0182V23.5415H61.3304V20.5366Z" fill="white"/>
<path d="M127.867 26.8781V23.5415H124.179V20.5366H121.545C121.486 22.1171 121.018 23.0342 119.984 23.5415V33.122C119.984 36.2634 121.779 37.9805 125.35 37.9805C126.021 37.9805 126.69 37.8956 127.34 37.7268V34.3512C127.004 34.4068 126.665 34.4332 126.325 34.4293C124.823 34.4293 124.179 33.8634 124.179 32.2829V26.8781H127.867Z" fill="white"/>
<path d="M114.13 27.5024H113.877V23.5415H109.994V37.7463H114.189V30.0585C114.189 27.9317 115.145 27.0342 117.33 27.0342C117.782 27.041 118.233 27.0859 118.677 27.1707V23.5024C118.294 23.3678 117.891 23.3024 117.486 23.3073C115.789 23.3073 114.618 24.2829 114.13 27.5024Z" fill="white"/>
<path d="M87.3401 34.3902C85.3694 34.3902 83.945 33.0829 83.945 30.5463C83.945 28.2829 85.2718 26.878 87.3011 26.878C89.0377 26.878 90.0328 27.8537 90.3255 29.4146H94.5791C94.1694 25.7658 91.5547 23.3073 87.3596 23.3073C82.7547 23.3073 79.7303 26.4293 79.7303 30.7024C79.7303 34.9756 82.6377 37.9805 87.3011 37.9805C91.5352 37.9805 94.2864 35.6195 94.6767 31.7951H90.423C90.1889 33.3561 89.1157 34.3902 87.3401 34.3902Z" fill="white"/>
<path d="M72.2962 23.3073C68.6474 23.3073 66.4425 25.1024 66.0523 28.3219H70.0718C70.2084 27.2098 70.9304 26.6244 72.1986 26.6244C73.4669 26.6244 74.0718 27.2098 74.0718 28.0488C74.0718 28.7512 73.623 29.1219 72.4718 29.3366L70.5596 29.6878C67.184 30.3122 65.8962 31.6976 65.8962 33.9024C65.8962 36.4195 67.6718 38 70.1304 38C72.1401 38 73.4474 37.0634 74.0523 34.7219H74.306V37.7463H78.2669V28.478C78.2669 25.2585 76.3352 23.3073 72.2962 23.3073ZM71.8279 35.1317C70.6962 35.1317 70.0523 34.5268 70.0523 33.6293C70.0523 32.8878 70.5011 32.3805 71.6133 32.1268L72.3938 31.9512C73.0669 31.7951 73.5899 31.5873 74.0718 31.1707V32.6732C74.0718 34.4097 73.1547 35.1317 71.8279 35.1317Z" fill="white"/>
<path d="M102.111 23.3073C98.4621 23.3073 96.2572 25.1024 95.867 28.3219H99.8865C100.023 27.2098 100.745 26.6244 102.013 26.6244C103.282 26.6244 103.886 27.2098 103.886 28.0488C103.886 28.7512 103.438 29.1219 102.286 29.3366L100.374 29.6878C96.9987 30.3122 95.7109 31.6976 95.7109 33.9024C95.7109 36.4195 97.4865 38 99.945 38C101.955 38 103.262 37.0634 103.867 34.7219H104.121V37.7463H108.082V28.478C108.082 25.2585 106.15 23.3073 102.111 23.3073ZM101.643 35.1317C100.511 35.1317 99.867 34.5268 99.867 33.6293C99.867 32.8878 100.316 32.3805 101.428 32.1268L102.208 31.9512C102.882 31.7951 103.404 31.5873 103.886 31.1707V32.6732C103.886 34.4097 102.969 35.1317 101.643 35.1317Z" fill="white"/>
<path d="M13.9372 21.399C13.0738 21.399 12.4591 21.7746 11.8884 22.5902L10.2562 24.9405V18.2341H6.35378V24.9405L4.71866 22.5902C4.15085 21.7746 3.53622 21.399 2.66988 21.399C1.37134 21.399 0.500122 22.36 0.500122 23.5444C0.500122 24.559 0.975244 25.2195 1.98305 25.8683L8.305 29.9414L14.627 25.8683C15.6348 25.2195 16.1099 24.558 16.1099 23.5444C16.1099 22.36 15.2387 21.399 13.9372 21.399Z" fill="white"/>
<path d="M8.30501 30.9171C12.0631 30.9171 15.1431 33.7219 15.1343 37.7463H1.47574C1.46793 33.7239 4.54696 30.9171 8.30501 30.9171Z" fill="white"/>
</g>
<defs>
<clipPath id="clip0_5166_80246">
<rect width="127.367" height="20" fill="white" transform="translate(0.500122 18)"/>
</clipPath>
</defs>
</svg>
