<svg width="129" height="56" viewBox="0 0 129 56" fill="none" xmlns="http://www.w3.org/2000/svg">
<path d="M41.2231 9.02731V9.72869C40.161 9.5617 39.4997 10.2898 38.8718 10.9043C37.5893 12.1602 36.4003 13.5095 35.1512 14.8388C35.3716 15.1327 35.5787 15.4132 35.7857 15.6938C37.2286 17.6176 38.638 19.5547 40.1276 21.4385C40.5418 21.9662 41.1363 22.3803 41.7175 22.7277C42.3854 23.1285 43.5143 22.7678 43.9218 22.0998C43.9953 21.9795 44.0354 21.8125 44.0354 21.6656C44.042 19.7685 44.0354 17.8714 44.0354 15.9743C44.0354 15.4667 43.4008 14.8187 42.8931 14.8054C42.7528 14.8054 42.6126 14.8054 42.4389 14.8054V14.1107H45.7988C45.7988 14.2576 45.7988 14.3845 45.7988 14.5181C45.7988 16.8628 45.7988 19.2141 45.7988 21.5587C45.7988 22.1933 46.4201 22.8145 47.0546 22.8145C47.2417 22.8145 47.4287 22.7945 47.6158 22.8145C48.1969 22.8947 48.571 22.5674 48.8849 22.1599C48.9918 22.0263 49.0519 21.8192 49.0519 21.6455C49.0653 19.7618 49.0586 17.8714 49.0519 15.9877C49.0519 15.48 48.404 14.8388 47.8963 14.8254C47.7761 14.8254 47.6558 14.8254 47.5356 14.8187C47.5156 14.8187 47.4955 14.8054 47.4488 14.7853V14.1307C47.5222 14.124 47.6024 14.0973 47.6892 14.0973C48.5042 14.0973 49.3124 14.0973 50.1274 14.0973C50.3478 14.0973 50.428 14.1641 50.4614 14.3845C50.5415 14.9123 50.6551 15.4333 50.762 15.9877C51.2028 15.5802 51.5969 15.1861 52.0178 14.8254C52.7726 14.1775 53.6477 13.8568 54.6496 13.9103C56.0324 13.9904 57.0677 15.0125 57.0878 16.4019C57.1145 18.0919 57.1011 19.7819 57.1011 21.4719C57.1011 22.2601 57.6288 22.8012 58.4104 22.8212C58.4638 22.8212 58.5173 22.8279 58.5974 22.8345V23.5159H53.8146V22.8212C54.309 22.8947 54.7164 22.7277 55.0504 22.367C55.2709 22.1332 55.3911 21.8793 55.3911 21.5453C55.3777 20.009 55.3911 18.4726 55.3911 16.9362C55.3911 16.8895 55.3911 16.8494 55.3911 16.8027C55.3443 15.4066 54.5227 14.7987 53.1801 15.1861C52.4052 15.4066 51.7372 15.814 51.1694 16.3952C50.929 16.6423 50.8087 16.9229 50.8154 17.2769C50.8288 18.693 50.8154 20.1092 50.8154 21.5186C50.8154 22.24 51.3899 22.8078 52.118 22.8212C52.1914 22.8212 52.2716 22.8279 52.3718 22.8345V23.5493H52.0445C47.756 23.5493 43.4676 23.5493 39.1791 23.5493C38.9453 23.5493 38.805 23.4758 38.6714 23.2821C37.1351 21.051 35.592 18.8266 34.049 16.6023C33.9889 16.5154 33.9221 16.4286 33.8286 16.295C33.5881 16.5488 33.381 16.8227 33.1272 17.0298C32.4859 17.5508 32.2655 18.1854 32.3389 19.0137C32.4124 19.8286 32.3523 20.6569 32.3523 21.4785C32.3523 22.1064 33.0604 22.8145 33.6816 22.8212C33.8352 22.8212 33.9889 22.8212 34.1625 22.8212V23.5293H28.5448V22.8479C28.6116 22.8412 28.6784 22.8145 28.7385 22.8279C29.4599 22.9481 29.8474 22.4805 30.2148 21.9929C30.3016 21.8727 30.335 21.6856 30.335 21.532C30.335 18.0251 30.335 14.5115 30.335 11.0045C30.335 10.4501 29.6002 9.72869 29.0458 9.72869C28.8855 9.72869 28.7185 9.72869 28.5381 9.72869V9.02063H34.1692V9.69529C34.0891 9.70197 34.0089 9.72201 33.9421 9.71533C33.2073 9.61514 32.8199 10.0961 32.4525 10.5971C32.3857 10.6839 32.359 10.8242 32.359 10.9377C32.359 12.7881 32.359 14.6451 32.359 16.4954C32.359 16.5421 32.3723 16.5956 32.3857 16.7158C32.6395 16.4353 32.8466 16.2015 33.0604 15.9743C34.4965 14.3779 35.926 12.7747 37.3756 11.1849C37.6093 10.9311 37.6093 10.7374 37.4424 10.4568C37.1217 9.90237 36.6875 9.58842 35.9995 9.74205V9.02731H41.2298H41.2231Z" fill="white"/>
<path d="M19.5938 9.00709V9.71515C19.4936 9.71515 19.4068 9.74187 19.3199 9.72851C18.8456 9.65503 18.505 9.88883 18.191 10.2095C17.9105 10.49 17.7769 10.7839 17.7769 11.1981C17.7902 14.6182 17.7835 18.0449 17.7835 21.465C17.7835 22.1597 18.4649 22.841 19.1663 22.841C19.2932 22.841 19.4268 22.841 19.5804 22.841V23.5358H13.9627V22.8678C14.0629 22.8611 14.1497 22.8344 14.2299 22.8477C14.9647 22.9412 15.3387 22.4403 15.6994 21.9393C15.7596 21.8591 15.7729 21.7322 15.7729 21.6253C15.7729 18.2453 15.7729 14.872 15.7729 11.492C15.7729 11.4586 15.7596 11.4252 15.6994 11.3718C13.9694 15.5066 12.2326 19.6414 10.4758 23.843C8.72568 19.5546 6.9956 15.3463 5.26552 11.138L5.19204 11.1513C5.19204 11.2448 5.17868 11.3317 5.17868 11.4252C5.17868 14.7584 5.17868 18.0917 5.17868 21.4249C5.17868 22.1263 5.88006 22.8277 6.58145 22.8277C6.70836 22.8277 6.84196 22.8277 6.98892 22.8277V23.5224H2.50006V22.8477C2.61362 22.841 2.72718 22.8277 2.84073 22.8277C3.66903 22.8277 4.31698 22.1731 4.31698 21.3381C4.31698 17.9046 4.31698 14.4712 4.31698 11.0378C4.31698 10.4433 3.60224 9.72851 3.00105 9.72183C2.84741 9.72183 2.69378 9.72183 2.5201 9.72183V9.02713C2.64034 9.02045 2.7539 9.00709 2.86745 9.00709C4.04311 9.00709 5.21876 9.02045 6.38773 9.00041C6.6616 9.00041 6.78852 9.08725 6.88204 9.34108C8.23805 12.7745 9.60074 16.208 10.9634 19.6347C11.0102 19.7483 11.0636 19.8685 11.1438 20.0489C11.2239 19.8752 11.2841 19.775 11.3241 19.6681C12.767 16.2213 14.2165 12.7812 15.6527 9.32772C15.7596 9.06721 15.8932 8.99373 16.1603 9.00041C17.1824 9.01377 18.1977 9.00041 19.2197 9.00041C19.34 9.00041 19.4535 9.00041 19.5871 9.00041L19.5938 9.00709Z" fill="white"/>
<path d="M106.966 34.2838V33.6091C107.066 33.5958 107.16 33.5824 107.253 33.5824C108.055 33.5824 108.857 33.5891 109.658 33.5757C109.905 33.5757 109.979 33.6692 110.012 33.883C110.099 34.3973 110.199 34.9117 110.299 35.4862C110.627 35.1722 110.907 34.8983 111.188 34.6311C112.029 33.8295 112.991 33.3152 114.2 33.3954C115.683 33.4889 116.652 34.5643 116.659 36.1541C116.665 37.7773 116.659 39.4005 116.659 41.0237C116.659 41.7318 117.213 42.2996 117.928 42.3263C117.995 42.3263 118.055 42.3397 118.142 42.3464V43.0477H113.352V42.3597C113.86 42.4265 114.261 42.2328 114.601 41.8654C114.802 41.645 114.915 41.4179 114.915 41.1039C114.902 39.5275 114.915 37.9443 114.915 36.3679C114.915 36.2343 114.915 36.1007 114.908 35.9738C114.815 34.9718 114.087 34.4241 113.058 34.6178C112.103 34.7914 111.281 35.2524 110.647 35.9871C110.48 36.1809 110.373 36.4948 110.366 36.7553C110.339 38.1915 110.353 39.6277 110.353 41.0638C110.353 41.7051 110.954 42.3196 111.602 42.3263C111.695 42.3263 111.796 42.3397 111.916 42.3464V43.0611H103.927C103.847 42.4666 103.773 41.8854 103.686 41.2241C103.579 41.3444 103.513 41.4112 103.453 41.4913C102.998 42.0458 102.504 42.5534 101.869 42.9075C100.654 43.5821 99.2376 43.2749 98.5295 42.166C97.7747 40.9837 98.0486 39.4607 99.1708 38.6524C99.7987 38.2048 100.52 37.9911 101.268 37.8375C101.956 37.6972 102.644 37.5569 103.332 37.4233C103.513 37.3899 103.626 37.3298 103.62 37.1094C103.606 36.6952 103.653 36.2744 103.633 35.8602C103.579 34.8182 103.099 34.2704 102.05 34.1368C101.596 34.0767 101.101 34.0967 100.654 34.1969C99.959 34.3506 99.6183 34.885 99.6918 35.593C99.7319 35.9604 99.8321 36.3211 99.9122 36.6818C99.3712 36.7954 99.3244 36.7754 99.0238 36.3278C98.6965 35.8335 98.3759 35.3392 98.0018 34.7714C98.436 34.4775 98.8234 34.1235 99.2777 33.9097C100.674 33.2484 102.13 33.1549 103.6 33.6492C104.789 34.05 105.39 34.9451 105.39 36.2009C105.39 37.8241 105.39 39.4473 105.39 41.0705C105.39 41.6717 106.031 42.3063 106.639 42.3063C106.813 42.3063 106.993 42.2862 107.167 42.3063C107.748 42.3864 108.128 42.0725 108.442 41.6583C108.543 41.5314 108.609 41.3444 108.609 41.1774C108.623 39.2669 108.616 37.3632 108.609 35.4528C108.609 34.9584 107.961 34.3172 107.447 34.2905C107.307 34.2838 107.167 34.2905 106.993 34.2905L106.966 34.2838ZM103.626 37.9377C103.112 38.0713 102.644 38.1848 102.19 38.3117C101.689 38.4587 101.161 38.5656 100.694 38.7927C99.8521 39.1935 99.5382 40.3224 99.9724 41.144C100.38 41.9122 101.328 42.1259 102.203 41.645C102.744 41.3511 103.165 40.9302 103.513 40.4226C103.566 40.3424 103.62 40.2489 103.62 40.1554C103.626 39.4339 103.62 38.7125 103.62 37.931L103.626 37.9377Z" fill="white"/>
<path d="M37.3021 33.6158H42.3988V34.3105C41.4836 34.1836 41.163 34.8984 40.7422 35.4728C40.6353 35.6198 40.5819 35.8335 40.5685 36.0273C40.4817 37.41 40.1209 38.7059 39.3528 39.8682C39.3327 39.9016 39.3194 39.9416 39.2793 40.0151C39.827 40.4694 40.3748 40.9236 40.9225 41.3711C41.0428 41.4713 41.163 41.5649 41.2832 41.6517C41.8109 42.0525 42.2919 42.5601 43.0801 42.313V43.0344C41.1897 43.1547 39.3594 43.1346 37.9767 41.625C37.9032 41.6316 37.8765 41.625 37.8632 41.6383C36.5806 42.834 35.0376 43.2883 33.3209 43.315C31.7578 43.335 30.4352 42.814 29.4265 41.6116C28.2909 40.2489 28.1974 38.1515 29.1526 36.4481C29.5601 35.72 30.1279 35.1322 30.8226 34.6111C30.7558 34.5109 30.689 34.4107 30.6222 34.3239C29.9208 33.3687 29.5668 32.3133 29.7004 31.1176C29.8674 29.6213 30.7692 28.6661 32.2655 28.4056C33.1472 28.2519 34.0089 28.3454 34.8706 28.5659C35.238 28.6594 35.6187 28.6995 35.9995 28.7462C36.0997 28.7596 36.2132 28.7128 36.3134 28.6794C36.5606 28.606 36.8011 28.5191 37.1017 28.4256V31.9392H36.5606C36.1064 30.3828 35.1445 29.3741 33.5547 29.0401C32.9201 28.9065 32.2855 29.0067 31.691 29.2873C30.669 29.7682 30.3083 31.0374 30.8694 32.1463C31.21 32.8276 31.7845 33.2484 32.4525 33.5691C32.6061 33.6426 32.7531 33.7494 32.8733 33.8697C34.7704 35.6933 36.6541 37.5235 38.5512 39.3538C38.618 39.4206 38.6981 39.4807 38.8384 39.5943C39.0188 39.1334 39.2392 38.7259 39.3327 38.285C39.4596 37.6705 39.5532 37.0292 39.5398 36.4013C39.5131 35.1856 38.7583 34.4508 37.5425 34.3373C37.469 34.3306 37.3956 34.3239 37.2954 34.3172V33.6225L37.3021 33.6158ZM31.1032 35.0854C30.0277 36.0673 29.6403 38.0513 30.3417 39.454C31.6643 42.126 34.6635 42.9409 37.262 41.3043C37.3221 41.2643 37.3689 41.2108 37.3622 41.2108C35.2714 39.1668 33.2006 37.1361 31.1032 35.0787V35.0854Z" fill="white"/>
<path d="M70.1602 34.2971V33.6292C70.2404 33.6158 70.3205 33.6024 70.4074 33.5958C71.1956 33.5958 71.9838 33.5958 72.7787 33.5958C72.9925 33.5958 73.0793 33.6492 73.1194 33.8763C73.1995 34.3639 73.3131 34.8382 73.4467 35.4461C73.5936 35.2657 73.6738 35.1455 73.774 35.0453C74.0813 34.738 74.3819 34.4107 74.7225 34.1368C75.6444 33.3887 76.6998 33.2217 77.822 33.5557C78.5902 33.7828 79.0978 34.3038 79.3049 35.092C79.3183 35.1588 79.3383 35.219 79.3583 35.2791C79.3583 35.2924 79.3851 35.3058 79.4051 35.3325C79.7324 35.0252 80.0531 34.718 80.387 34.4107C81.2087 33.6559 82.1639 33.2885 83.2794 33.4488C84.4951 33.6158 85.3034 34.4508 85.417 35.6799C85.4771 36.3211 85.4504 36.9758 85.4504 37.617C85.4504 38.7125 85.4504 39.808 85.4504 40.9102C85.4504 41.6917 85.9981 42.2595 86.7863 42.3063C86.8197 42.3063 86.8465 42.3196 86.8999 42.333V43.001H82.2106V42.3597C82.2708 42.3464 82.3376 42.313 82.391 42.3196C82.912 42.3931 83.246 42.0925 83.5199 41.7185C83.6401 41.5515 83.7336 41.3243 83.7336 41.1239C83.7537 39.4807 83.747 37.8308 83.7336 36.1875C83.7336 35.9671 83.7136 35.7467 83.6602 35.5329C83.4798 34.7981 82.8319 34.404 82.0102 34.5309C81.1218 34.6712 80.3804 35.0987 79.7725 35.7533C79.5654 35.9805 79.4652 36.241 79.4719 36.5616C79.4853 38.0512 79.4719 39.5475 79.4719 41.0371C79.4719 41.7452 80.013 42.2929 80.721 42.313C80.7945 42.313 80.868 42.3263 80.9682 42.333V43.0077H76.1988V42.313C76.7265 42.4065 77.1473 42.2061 77.4346 41.7986C77.5748 41.5982 77.7017 41.331 77.7017 41.0905C77.7218 39.454 77.7151 37.8241 77.7151 36.1875C77.7151 34.9184 76.9536 34.3038 75.7245 34.5844C74.9229 34.7714 74.2349 35.1922 73.7272 35.8402C73.5602 36.0539 73.46 36.3746 73.4534 36.6484C73.4266 38.1047 73.44 39.5675 73.44 41.0237C73.44 41.7519 73.9811 42.2996 74.7092 42.313C74.776 42.313 74.8361 42.313 74.9296 42.3263V43.0077H70.1669V42.353C70.2136 42.3397 70.2804 42.313 70.3406 42.3196C70.8015 42.3864 71.1021 42.1326 71.396 41.832C71.603 41.6116 71.6966 41.3711 71.6966 41.0638C71.6899 39.2669 71.6966 37.4634 71.6966 35.6665C71.6966 34.885 71.1488 34.3305 70.374 34.3172C70.3205 34.3172 70.2671 34.3105 70.1736 34.3038L70.1602 34.2971Z" fill="white"/>
<path d="M86.6861 34.2838V33.5824C87.1136 33.5824 87.5278 33.5824 87.9419 33.5824C88.4496 33.5824 88.9506 33.5824 89.4583 33.5824C89.652 33.5824 89.7455 33.6225 89.7789 33.8429C89.8457 34.3506 89.9459 34.8583 90.0528 35.4528C90.1597 35.2925 90.2264 35.1789 90.2932 35.072C91.3153 33.4021 92.9719 33.0547 94.5082 33.4756C95.6304 33.7828 96.3385 34.5911 96.7193 35.6465C97.3872 37.5102 97.3672 39.3739 96.4521 41.1641C95.4434 43.1546 92.9919 43.8761 91.2151 42.7004C90.7608 42.3998 90.4202 41.9389 90.0327 41.5648C90.0327 41.6049 90.0194 41.6918 90.0194 41.7853C90.0194 43.0344 90.0194 44.2835 90.0194 45.5394C90.0194 46.3343 90.5738 46.8887 91.3687 46.902C91.4422 46.902 91.5223 46.9087 91.6225 46.9221V47.5967H86.6928V46.9354C86.7596 46.9221 86.8197 46.902 86.8798 46.9087C87.3942 46.9889 87.7482 46.715 88.0221 46.3409C88.1557 46.1606 88.2425 45.9067 88.2492 45.6863C88.2626 42.3063 88.2559 38.933 88.2559 35.553C88.2559 34.8917 87.6747 34.3039 87.0134 34.2972C86.9132 34.2972 86.8197 34.2972 86.6861 34.2972V34.2838ZM90.0194 38.2717C90.0194 38.8127 90.006 39.2202 90.0194 39.621C90.0862 41.0037 91.1149 42.0792 92.4909 42.2128C93.8937 42.3531 94.889 41.6383 95.2297 40.1754C95.5169 38.9463 95.5302 37.6905 95.263 36.4548C95.056 35.4929 94.555 34.7314 93.5063 34.4909C92.3974 34.2371 91.2819 34.7447 90.5872 35.7601C90.0394 36.5683 89.9192 37.4567 90.0194 38.2583V38.2717Z" fill="white"/>
<path d="M59.753 39.1868C59.4724 39.995 59.065 40.7231 58.4972 41.3577C57.3616 42.6403 55.9054 43.2147 54.2154 43.2882C50.2476 43.4619 47.5623 40.5695 47.1014 36.9223C46.8809 35.1455 47.0747 33.4154 47.8629 31.7855C49.2322 28.9533 52.0979 27.6641 55.2441 28.4523C55.7985 28.5925 56.353 28.7261 56.9074 28.8263C57.3149 28.8998 57.7023 28.8531 58.0563 28.5658C58.1832 28.459 58.417 28.4924 58.6375 28.4523V33.6158H58.0563C57.9695 32.8009 57.6889 32.046 57.2414 31.358C56.5467 30.2892 55.6649 29.4342 54.3824 29.2004C52.2849 28.8197 50.2543 29.5812 49.5996 32.193C49.2456 33.6024 49.2322 35.0386 49.3124 36.4748C49.3525 37.1361 49.3926 37.8174 49.5596 38.4587C50.1607 40.7833 52.0645 42.166 54.4759 42.1059C55.705 42.0725 56.8606 41.8253 57.7557 40.9169C58.1432 40.5228 58.4571 40.0485 58.7577 39.5876C59.0783 39.0866 59.085 39.0599 59.753 39.1868Z" fill="white"/>
<path d="M70.207 38.3117C70.1469 40.4693 69.0447 42.2328 67.2411 42.9542C64.282 44.1432 61.109 42.1994 60.7884 39.0265C60.6348 37.5235 60.902 36.1341 61.8973 34.9651C63.093 33.5624 64.6494 33.0814 66.4329 33.4421C68.2498 33.8095 69.4121 34.9651 69.9331 36.7286C70.0801 37.2363 70.1202 37.7774 70.207 38.3051V38.3117ZM68.3634 38.2984C68.3166 37.6905 68.2899 37.0826 68.2164 36.4881C68.1429 35.887 67.9358 35.3325 67.495 34.8983C66.6667 34.0834 65.6513 33.9899 64.5892 34.2504C63.5338 34.5109 62.9861 35.2791 62.7656 36.2877C62.4985 37.5235 62.5185 38.7726 62.7189 40.0151C62.8324 40.6964 63.0796 41.3377 63.634 41.7919C64.5358 42.5267 65.5712 42.5601 66.6199 42.2128C67.6018 41.8855 68.0494 41.0906 68.203 40.1287C68.2966 39.5275 68.3099 38.9062 68.3634 38.2984Z" fill="white"/>
<path d="M74.6291 14.792V14.124H79.6122V14.8321C79.492 14.8321 79.3851 14.8454 79.2782 14.8321C78.971 14.792 78.7572 14.9456 78.5635 15.1527C78.2562 15.4934 78.1694 15.814 78.3831 16.2749C79.0712 17.7645 79.6991 19.2808 80.3871 20.8573C80.4606 20.717 80.5073 20.6302 80.5474 20.5366C81.1887 19.047 81.8299 17.5574 82.4712 16.0678C82.6649 15.6136 82.1906 14.8588 81.6897 14.8254C81.536 14.8187 81.3891 14.8254 81.202 14.8254V14.1173H84.9227V14.7786C83.9541 14.8387 83.54 15.5468 83.1993 16.3016C81.4425 20.2093 79.6991 24.1237 77.9556 28.0314C77.9155 28.1183 77.8688 28.2051 77.8087 28.3253C77.5281 28.1984 77.2542 28.0715 76.9536 27.9312C77.1874 27.4503 77.4079 26.9894 77.6283 26.5285C78.2028 25.3595 78.7772 24.1905 79.3383 23.0149C79.3985 22.8813 79.4118 22.6675 79.345 22.5339C78.3431 20.3563 77.3344 18.1787 76.3191 16.001C76.0853 15.5067 75.6912 15.1594 75.2302 14.8922C75.0766 14.7987 74.8562 14.8187 74.6291 14.7786V14.792Z" fill="white"/>
<path d="M122.216 33.6024V34.2437C122.136 34.2571 122.069 34.2771 121.996 34.2771C121.441 34.2971 121.014 34.5977 120.84 35.1188C120.813 35.2056 120.827 35.3058 120.84 35.3993C120.84 35.4528 120.88 35.4995 120.9 35.553C121.582 37.1227 122.263 38.6858 122.978 40.329C123.051 40.1754 123.098 40.0886 123.138 39.9951C123.773 38.5255 124.401 37.0559 125.035 35.5864C125.256 35.0787 124.781 34.3105 124.227 34.2771C124.087 34.2704 123.946 34.2771 123.773 34.2771V33.5958H127.5V34.2303C126.638 34.3038 126.191 34.905 125.883 35.5864C124.093 39.5275 122.336 43.4819 120.56 47.4297C120.506 47.55 120.446 47.6635 120.386 47.8038C120.092 47.6702 119.818 47.5366 119.518 47.3963C119.972 46.4678 120.413 45.5594 120.854 44.6576C121.214 43.9161 121.582 43.1813 121.929 42.4399C121.982 42.3196 121.982 42.1393 121.929 42.019C120.927 39.8347 119.918 37.6638 118.91 35.4862C118.676 34.9785 118.262 34.6311 117.801 34.3506C117.654 34.2637 117.447 34.2704 117.24 34.2237V33.5824H122.223L122.216 33.6024Z" fill="white"/>
<path d="M75.3304 20.4766C74.8695 21.9461 74.1481 23.1752 72.5583 23.596C70.8883 24.0369 69.3787 23.7363 68.1562 22.4404C66.0989 20.2628 66.4796 16.2148 68.8977 14.5582C70.0199 13.7834 71.2624 13.6297 72.5382 14.0973C73.8675 14.5916 74.4754 15.6537 74.6023 17.0097C74.6825 17.8647 74.6624 17.8581 73.794 17.9249C72.0706 18.0585 70.3406 18.2054 68.6172 18.3323C68.4168 18.3457 68.35 18.4125 68.3633 18.6129C68.5236 20.8707 70.4007 22.8011 73.1929 21.9194C73.7807 21.7324 74.2349 21.3316 74.5288 20.8106C74.7225 20.4699 74.9497 20.3764 75.3438 20.4832L75.3304 20.4766ZM73.0259 17.2836C73.0259 16.8427 73.0659 16.4353 73.0192 16.0411C72.9457 15.48 72.6785 15.0124 72.1241 14.792C71.2023 14.4246 70.3005 14.5181 69.5123 15.1193C68.684 15.7405 68.4034 16.649 68.3433 17.6777C69.9264 17.5441 71.4628 17.4172 73.0325 17.2836H73.0259Z" fill="white"/>
<path d="M59.3589 23.5693V20.2561H59.8799C60.0737 21.2447 60.6615 21.9661 61.4898 22.5072C62.278 23.0149 63.1397 23.1418 64.0415 22.928C64.5158 22.8145 64.8898 22.574 65.0167 22.0597C65.1503 21.5052 65.0034 21.031 64.5759 20.6703C64.3354 20.4699 64.0548 20.3095 63.7676 20.176C62.8725 19.7618 61.9574 19.4011 61.069 18.9669C60.6815 18.7799 60.3074 18.5127 60.0069 18.2054C59.1986 17.3771 59.1786 16.3751 59.5459 15.3598C59.9067 14.3645 60.7283 13.9771 61.7169 13.8635C62.3648 13.79 62.9794 13.9169 63.5873 14.1307C63.8945 14.2376 64.2218 14.2843 64.5425 14.3311C64.6493 14.3444 64.7763 14.291 64.8831 14.2509C65.0835 14.1841 65.2773 14.1107 65.5177 14.0171V16.983H64.9967C64.656 15.7472 63.9012 14.939 62.6654 14.625C62.1778 14.5048 61.6835 14.5181 61.2092 14.7052C60.4076 15.0258 60.1872 16.0612 60.8218 16.649C61.069 16.8828 61.3896 17.0565 61.7102 17.2034C62.4918 17.5575 63.2867 17.858 64.0682 18.2054C64.4423 18.3724 64.823 18.5661 65.157 18.8133C66.8203 20.029 66.4195 22.5339 64.9767 23.3489C64.155 23.8165 63.2733 23.8966 62.3648 23.6962C61.9373 23.6027 61.5232 23.4424 61.1024 23.3355C60.6615 23.222 60.2273 23.1218 59.8332 23.4958C59.7463 23.576 59.5459 23.5426 59.3522 23.5693H59.3589Z" fill="white"/>
<path d="M28.4045 20.4966C27.8968 22.1331 26.9951 23.3689 25.2249 23.7096C23.4414 24.0503 21.9117 23.596 20.8095 22.073C19.38 20.0891 19.5537 17.0231 21.1702 15.2329C22.8001 13.4226 26.0398 13.3892 27.6898 15.1928C27.2489 15.8741 26.8214 16.5688 26.3471 17.2368C26.2603 17.3571 25.9797 17.3437 25.7326 17.4038C25.766 17.1032 25.786 16.8694 25.806 16.6356C25.9396 15.1594 25.0245 14.3444 23.5683 14.6317C22.8068 14.7786 22.2056 15.1661 21.8783 15.8608C21.1368 17.4038 21.0634 18.9736 21.9117 20.4966C22.7934 22.073 25.0445 22.6675 26.6076 21.739C26.9817 21.5186 27.309 21.1712 27.5628 20.8172C27.7833 20.5099 28.0037 20.3964 28.3911 20.5099L28.4045 20.4966Z" fill="white"/>
<path d="M43.521 10.6772C43.521 9.9625 44.0019 9.46819 44.7367 9.46151C45.4581 9.44815 45.9658 9.94246 45.9792 10.6572C45.9858 11.3786 45.4915 11.8863 44.7768 11.893C44.0353 11.8997 43.5277 11.412 43.521 10.6772Z" fill="white"/>
</svg>
