<svg width="128" height="56" viewBox="0 0 128 56" fill="none" xmlns="http://www.w3.org/2000/svg">
<g clip-path="url(#clip0_5227_82173)">
<path d="M43.0207 40.6635H33.9999C34.0931 40.6127 34.161 40.5787 34.2203 40.5364C34.941 40.0531 35.4751 39.4427 35.7464 38.5949C37.9422 31.558 40.1466 24.5296 42.3424 17.5012C42.4102 17.2892 42.4696 17.0688 42.512 16.8483C42.6137 16.2379 42.3933 15.7462 41.9185 15.3562C41.8931 15.3308 41.8676 15.3138 41.8168 15.2714C41.8676 15.2714 41.8931 15.2714 41.9185 15.2714C45.7761 15.2714 49.6336 15.2629 53.4912 15.2799C54.941 15.2799 56.3314 15.5936 57.6031 16.3227C58.8155 17.0179 59.6379 18.0099 59.9431 19.3918C60.0872 20.0361 60.1126 20.6805 60.0279 21.3333C59.8074 23.0968 59.197 24.7076 58.2051 26.1743C57.1453 27.7428 55.7125 28.8789 54.0084 29.6928C52.7027 30.3117 51.3293 30.6932 49.9049 30.9306C48.506 31.1595 47.0986 31.2104 45.6828 31.168C45.3776 31.1595 45.0808 31.1341 44.7756 31.0917C44.6485 31.0747 44.6061 31.1086 44.5722 31.2273C44.2585 32.2277 43.9448 33.2197 43.6311 34.2116C43.1648 35.7038 42.7154 37.196 42.2237 38.6796C41.9439 39.5105 42.283 40.282 43.0037 40.655L43.0207 40.6635ZM45.2589 29.1332C45.2589 29.1332 45.3182 29.1586 45.3437 29.1586C46.5221 29.3791 47.6497 29.235 48.7349 28.7432C49.9643 28.1837 50.8714 27.2511 51.5751 26.115C52.2873 24.9704 52.7282 23.7157 53.0503 22.4185C53.2962 21.4435 53.4658 20.46 53.2962 19.4511C53.1521 18.5948 52.7536 17.9081 51.9397 17.5266C51.5243 17.3316 51.0834 17.2383 50.634 17.2214C50.1508 17.2044 49.6591 17.2214 49.1673 17.2129C49.0317 17.2129 48.9723 17.2553 48.9299 17.3825C47.726 21.2316 46.5137 25.0722 45.3013 28.9213C45.2843 28.9891 45.2674 29.0569 45.2504 29.1332H45.2589Z" fill="white"/>
<path d="M93.9999 16.1109C93.6523 17.2215 93.3047 18.3237 92.9486 19.4513C92.8892 19.4004 92.8384 19.3665 92.796 19.3326C91.7701 18.4848 90.651 17.8065 89.3708 17.3996C88.5654 17.1452 87.743 17.0265 86.8952 17.0859C85.6658 17.1707 84.5467 17.603 83.5293 18.2813C82.4102 19.0189 81.4946 19.9685 80.6976 21.0452C79.1631 23.1054 78.1203 25.403 77.4081 27.8616C77.0605 29.0571 76.7553 30.261 76.5518 31.4903C76.3992 32.4483 76.2974 33.4148 76.3314 34.3813C76.3653 35.3479 76.5094 36.2889 76.9672 37.1622C77.5268 38.2304 78.4255 38.8409 79.6124 39.0274C80.2567 39.1291 80.8926 39.0952 81.5285 38.9765C81.6387 38.9596 81.6811 38.9087 81.715 38.8069C82.2915 36.9672 82.868 35.1359 83.4445 33.2961C83.7921 32.1855 84.1313 31.0664 84.4958 29.9557C84.8434 28.896 84.3941 28.0905 83.5124 27.6582C83.4869 27.6412 83.4615 27.6327 83.4022 27.5988H93.2114C93.0588 27.6751 92.9147 27.7345 92.7705 27.8108C91.9227 28.2347 91.3632 28.896 91.0834 29.8031C90.1423 32.8298 89.1843 35.8565 88.2347 38.8832C88.2008 38.9935 88.1414 39.0613 88.0397 39.1122C86.4119 39.8922 84.6993 40.4432 82.9274 40.7739C81.7659 40.9858 80.5959 41.0706 79.4174 41.0197C77.637 40.9434 75.9244 40.545 74.3305 39.7395C72.9486 39.0443 71.9905 37.9422 71.3462 36.5602C70.9053 35.6276 70.651 34.6526 70.5069 33.6353C70.3712 32.6942 70.3288 31.7531 70.3966 30.812C70.634 27.3105 71.6429 24.0549 73.8133 21.2656C76.1279 18.2813 79.1546 16.3313 82.8511 15.4496C83.8261 15.2207 84.8095 15.0511 85.81 15.0257C86.7341 15.0002 87.6582 14.9833 88.5823 15.0342C90.3882 15.1444 92.1516 15.5089 93.8812 16.0515C93.9236 16.0685 93.966 16.0855 94.0168 16.1024L93.9999 16.1109Z" fill="white"/>
<path d="M65.8015 35.2885C65.9625 34.9918 66.1236 34.7289 66.2593 34.4492C66.4628 34.0168 66.5645 33.559 66.6154 33.0842C66.6662 32.5585 66.5136 32.2194 66.0643 31.787H69.2266C69.2012 31.9905 69.1843 32.2025 69.1503 32.4059C68.9299 34.0083 68.2008 35.3563 67.1071 36.5263C66.8528 36.7976 66.8528 36.8061 67.1241 37.0689C67.7854 37.7302 68.5314 38.2813 69.3029 38.7985C70.4305 39.5361 71.6005 40.1889 72.8723 40.6721C72.8383 40.6721 72.796 40.6721 72.762 40.6721C70.8205 40.6721 68.879 40.6721 66.9375 40.6721C66.8188 40.6721 66.6747 40.6382 66.5815 40.5704C66.0473 40.155 65.5217 39.7311 64.996 39.3072C64.835 39.1715 64.6823 39.0274 64.5297 38.8832C64.445 38.7985 64.3771 38.7985 64.2839 38.8663C63.2241 39.5954 62.0965 40.1889 60.8841 40.6043C59.8667 40.9519 58.8239 41.113 57.7557 41.0452C56.5772 40.9689 55.4666 40.6806 54.517 39.9345C53.5251 39.1461 52.9146 38.1287 52.762 36.8654C52.4907 34.695 53.2622 32.957 54.9494 31.609C55.9583 30.8036 57.1198 30.2694 58.3237 29.8286C58.7731 29.6675 59.2224 29.5064 59.6717 29.3538C59.782 29.3114 59.8328 29.2605 59.8244 29.1334C59.7904 28.4212 59.8074 27.709 59.9091 26.9969C60.1041 25.6064 60.5026 24.2838 61.3843 23.1562C62.1982 22.1134 63.2919 21.5115 64.5552 21.2063C65.6234 20.9434 66.6832 20.9858 67.7006 21.4437C68.6332 21.8676 69.3029 22.5204 69.5488 23.5462C69.7438 24.3771 69.5488 25.1401 69.1419 25.8608C68.701 26.6408 68.0567 27.2342 67.3445 27.7599C66.4543 28.4127 65.4708 28.896 64.4789 29.3623C64.1737 29.5064 63.8684 29.659 63.5632 29.7947C63.4615 29.837 63.4361 29.8879 63.453 30.0066C63.7328 31.7616 64.4704 33.33 65.4454 34.7883C65.5386 34.9324 65.6404 35.0766 65.7336 35.2207C65.7336 35.2292 65.7591 35.2376 65.8099 35.2885H65.8015ZM63.0884 37.3996C61.7235 35.5259 60.7485 33.4911 60.1465 31.2699C60.1041 31.2868 60.0787 31.2953 60.0533 31.3038C59.1037 31.7446 58.2644 32.3211 57.5607 33.1011C56.7807 33.9659 56.3483 34.9494 56.5179 36.1363C56.6366 36.9587 57.0011 37.637 57.7387 38.0693C58.4678 38.4933 59.2563 38.6035 60.0872 38.4848C60.9774 38.3576 61.7998 38.0524 62.6052 37.6624C62.7663 37.5861 62.9189 37.4928 63.0884 37.408V37.3996ZM63.1139 28.1075C63.1563 28.099 63.1817 28.099 63.1987 28.0905C63.2495 28.0651 63.3089 28.0397 63.3597 28.0058C64.5213 27.2427 65.5132 26.2932 66.2423 25.0977C66.5306 24.623 66.751 24.1228 66.7849 23.5632C66.8358 22.7917 66.4712 22.3678 65.6997 22.4102C65.3352 22.4356 65.0215 22.6052 64.7417 22.8341C64.3008 23.1902 63.9871 23.648 63.7413 24.1482C63.2326 25.1741 63.0545 26.2762 63.08 27.4123C63.08 27.6412 63.0969 27.8701 63.1054 28.1075H63.1139Z" fill="white"/>
</g>
<defs>
<clipPath id="clip0_5227_82173">
<rect width="60" height="26.0449" fill="white" transform="translate(33.9999 15)"/>
</clipPath>
</defs>
</svg>
