<svg width="129" height="56" viewBox="0 0 129 56" fill="none" xmlns="http://www.w3.org/2000/svg">
<g clip-path="url(#clip0_5166_80249)">
<path d="M19.5001 18C21.845 18 24.19 18 26.5414 18C27.2718 18 27.983 18.1087 28.6686 18.3708C29.8475 18.8246 30.6676 19.63 31.0648 20.8254C31.6158 22.5002 31.5966 24.1814 30.8662 25.8114C30.3985 26.8597 29.5976 27.5437 28.4764 27.8442C28.4379 27.8569 28.3995 27.8761 28.2841 27.9209C28.4123 27.9464 28.4764 27.9656 28.5404 27.9784C29.8859 28.1893 30.6996 28.982 31.0007 30.286C31.1289 30.8549 31.1929 31.4494 31.225 32.0375C31.2891 33.2137 31.3211 34.3963 31.3403 35.5789C31.3531 36.3651 31.5133 37.081 32.2757 37.6436C31.8657 37.6436 31.5581 37.6436 31.2506 37.6436C30.5266 37.6436 29.7962 37.618 29.0722 37.65C28.739 37.6627 28.5789 37.5029 28.5212 37.2409C28.3931 36.6464 28.2585 36.0455 28.2201 35.4382C28.1432 34.147 28.124 32.8557 28.0791 31.5645C28.0727 31.3535 28.0343 31.1426 27.9894 30.938C27.7395 29.8258 27.086 29.1993 25.9263 29.129C24.8564 29.0651 23.7864 29.1162 22.6716 29.1162V37.6436C22.332 37.6436 22.0373 37.6436 21.7361 37.6436C20.9865 37.65 20.2433 37.6627 19.4937 37.6755V18H19.5001ZM22.678 26.668C22.7997 26.6744 22.883 26.6871 22.9727 26.6871C23.7543 26.6999 24.536 26.7063 25.3177 26.7191C26.6439 26.7383 27.81 25.9648 28.124 24.7311C28.2777 24.1174 28.3098 23.4526 28.2713 22.8198C28.1752 21.324 27.2975 20.4419 25.7982 20.3396C24.7859 20.2693 23.7672 20.314 22.7548 20.3076C22.7356 20.3076 22.7164 20.3268 22.6844 20.3524V26.668H22.678Z" fill="white"/>
<path d="M64.5418 24.3923C64.5802 24.3284 64.6187 24.2709 64.6571 24.2005C65.2209 23.1969 66.0602 22.628 67.2135 22.4874C68.1169 22.3787 68.9947 22.4235 69.8404 22.7623C70.9809 23.2161 71.5255 24.143 71.7113 25.2936C71.7946 25.8178 71.8138 26.3611 71.8202 26.8917C71.8266 30.139 71.8202 33.3799 71.8202 36.6272C71.8202 36.7359 71.8202 36.8509 71.8202 36.9596C71.8245 37.4198 71.5917 37.65 71.1218 37.65C70.0134 37.65 68.9114 37.6372 67.803 37.6564C67.457 37.6627 67.3673 37.5669 67.3673 37.2281C67.3801 34.1534 67.3801 31.0723 67.3673 27.9976C67.3673 27.5757 67.3353 27.1474 67.252 26.7383C67.1494 26.2589 66.8739 25.8689 66.3614 25.7475C65.8104 25.6132 65.3234 25.7603 64.9262 26.1758C64.4649 26.6488 64.3624 27.2561 64.3624 27.8761C64.356 30.9508 64.3624 34.0319 64.3624 37.1066C64.3624 37.5349 64.3624 37.5349 63.9395 37.5349C62.735 37.5349 61.524 37.5285 60.3195 37.5349C60.0376 37.5349 59.9607 37.4582 59.9607 37.1769C59.9671 30.9125 59.9671 24.6416 59.9607 18.3771C59.9607 18.0703 60.0632 18.0064 60.3451 18.0128C61.5753 18.0256 62.8055 18.032 64.0356 18.0128C64.3432 18.0128 64.4393 18.0895 64.4329 18.4027C64.42 20.2565 64.4264 22.1039 64.4329 23.9576C64.4329 24.0983 64.4585 24.2453 64.4713 24.3859C64.4969 24.3859 64.5225 24.3859 64.5482 24.3859L64.5418 24.3923Z" fill="white"/>
<path d="M85.621 37.6436C85.589 37.6436 85.4929 37.6564 85.3968 37.6564C84.2691 37.6564 83.1415 37.6436 82.0138 37.6627C81.6999 37.6627 81.5718 37.5541 81.5461 37.26C81.5141 36.9276 81.4692 36.6016 81.4308 36.2692C81.418 36.1669 81.4116 36.0647 81.3988 35.9624C81.3731 35.9624 81.3411 35.9496 81.3155 35.9432C81.2578 36.0327 81.2001 36.1158 81.1425 36.2053C80.2711 37.5796 78.9961 38.1102 77.4136 38.0079C76.7857 37.9632 76.177 37.8417 75.626 37.5221C74.8379 37.0619 74.3766 36.3587 74.146 35.4958C73.8512 34.3963 73.8064 33.2712 74.0755 32.159C74.4151 30.7527 75.2416 29.781 76.6768 29.3783C77.8044 29.0651 78.932 28.7646 80.0533 28.4514C80.2583 28.3939 80.4569 28.3236 80.6427 28.2277C80.7901 28.151 80.931 28.0487 81.0336 27.9273C81.3859 27.5054 81.3924 26.3803 81.0656 25.8498C80.7837 25.3959 80.1045 25.1658 79.451 25.3C78.6309 25.4662 78.2913 25.8817 78.1888 26.9364C78.1632 27.2369 78.0607 27.3072 77.7852 27.3008C76.7216 27.288 75.6644 27.288 74.6009 27.3008C74.3126 27.3008 74.2164 27.1985 74.2741 26.9237C74.3958 26.3164 74.4407 25.6836 74.6329 25.1019C75.075 23.7595 76.1514 23.0499 77.4456 22.7175C79.2011 22.2701 80.9823 22.2956 82.7314 22.7687C84.141 23.1522 84.9675 24.1047 85.2046 25.5365C85.2943 26.1054 85.3263 26.6871 85.3327 27.2625C85.3455 30.0815 85.3327 32.9005 85.3583 35.7259C85.3647 36.3587 85.5313 36.9852 85.6274 37.6372L85.621 37.6436ZM81.2898 30.2924C80.4505 30.6632 79.6624 30.9764 78.9 31.3599C78.5284 31.5453 78.2785 31.9097 78.1824 32.3252C78.0479 32.9069 78.0607 33.495 78.2401 34.0703C78.4323 34.6839 78.868 35.0163 79.4638 35.0099C80.3864 35.0099 81.0976 34.4602 81.2066 33.5397C81.3027 32.7023 81.2642 31.8521 81.2834 31.0084C81.2834 30.791 81.2834 30.5737 81.2834 30.286L81.2898 30.2924Z" fill="white"/>
<path d="M109.308 32.6704C109.353 34.6456 108.603 36.7167 106.457 37.5477C105.348 37.976 104.189 38.1166 103.01 37.9952C102.446 37.9376 101.876 37.8801 101.331 37.7395C99.5115 37.2728 98.4672 36.0263 97.9931 34.262C97.5958 32.8046 97.5766 31.3152 97.5766 29.8258C97.5766 28.6112 97.6279 27.4031 97.9802 26.2269C98.653 23.964 100.191 22.7239 102.548 22.4938C103.785 22.3723 105.002 22.4171 106.188 22.7815C107.854 23.2928 108.783 24.5074 109.135 26.1502C109.327 27.0451 109.404 27.972 109.481 28.8861C109.532 29.5381 109.494 30.1901 109.494 30.8933C109.378 30.8933 109.237 30.8933 109.096 30.8933C106.86 30.8933 104.624 30.8933 102.395 30.8933C102.087 30.8933 101.953 30.9572 101.978 31.296C102.042 32.1462 102.062 33.0028 102.126 33.8593C102.145 34.0958 102.235 34.3388 102.337 34.5561C102.593 35.125 103.074 35.4127 103.625 35.3871C104.298 35.3615 104.797 35.0867 104.977 34.4155C105.098 33.9424 105.163 33.4566 105.246 32.9772C105.271 32.8366 105.233 32.6704 105.457 32.6704C106.739 32.6704 108.027 32.6704 109.334 32.6704H109.308ZM101.985 28.3875C103.035 28.3875 104.041 28.3875 105.047 28.3811C105.124 28.3811 105.259 28.2405 105.252 28.1702C105.188 27.4734 105.156 26.7703 105.015 26.0927C104.881 25.4407 104.451 25.1146 103.804 25.0955C103.099 25.0763 102.613 25.2681 102.318 25.9009C101.953 26.6808 101.94 27.5054 101.985 28.3875Z" fill="white"/>
<path d="M53.9061 27.141C53.8868 26.9428 53.8676 26.7766 53.8612 26.6104C53.81 25.7283 53.4576 25.3128 52.599 25.2297C52.2723 25.1977 51.9327 25.2489 51.6123 25.3256C51.1831 25.4343 50.946 25.7539 50.8755 26.1885C50.7858 26.7575 50.8627 27.2816 51.3689 27.6524C52.016 28.1254 52.7848 28.298 53.5216 28.5281C54.4122 28.8094 55.3092 29.0779 56.1101 29.5893C57.0455 30.1965 57.635 31.0339 57.8528 32.127C58.0707 33.2201 58.0194 34.3004 57.5901 35.3359C56.9622 36.8509 55.7321 37.65 54.1944 37.9632C52.5926 38.2892 50.9844 38.2764 49.4019 37.7842C47.8578 37.3048 46.8455 36.2628 46.6789 34.4858C46.6469 34.1086 46.6405 33.7315 46.6148 33.3543C46.602 33.1562 46.6725 33.0795 46.8839 33.0795C48.0244 33.0858 49.1648 33.0922 50.3053 33.0795C50.5552 33.0795 50.5872 33.1817 50.6064 33.3927C50.6385 33.7315 50.6961 34.0767 50.805 34.4027C51.0677 35.157 51.7917 35.4254 52.5478 35.3232C53.464 35.2017 53.9253 34.6711 53.9381 33.8529C53.9509 33.0155 53.496 32.4594 52.5542 32.1078C51.4906 31.7115 50.4142 31.3407 49.3763 30.8869C48.2999 30.4203 47.3645 29.7491 46.9864 28.5537C46.5123 27.0259 46.6725 24.9101 48.0756 23.7531C48.8124 23.1458 49.671 22.8326 50.5936 22.6664C52.0865 22.4043 53.5729 22.4171 55.0273 22.8454C56.8982 23.4015 57.9425 24.9612 57.7887 26.9109C57.7759 27.0835 57.7119 27.141 57.5453 27.141C56.3536 27.141 55.1554 27.141 53.9189 27.141H53.9061Z" fill="white"/>
<path d="M32.5705 18.0128H35.9022C37.017 23.2097 38.1254 28.4131 39.2403 33.6164C39.2659 33.6164 39.2979 33.6164 39.3236 33.6164C40.4768 28.4195 41.6301 23.2289 42.7898 18.0192H46.1407C45.9485 18.7863 45.7627 19.5405 45.5769 20.2948C44.1481 25.9329 42.7193 31.5773 41.2969 37.2217C41.2137 37.5477 41.0919 37.6628 40.7459 37.65C39.676 37.6244 38.5996 37.6308 37.5296 37.65C37.2861 37.65 37.19 37.5797 37.1324 37.3367C35.8509 31.8905 34.5503 26.4442 33.2625 20.998C33.0446 20.0903 32.8268 19.1826 32.6154 18.2685C32.5962 18.1918 32.5962 18.1151 32.5833 18.0256L32.5705 18.0128Z" fill="white"/>
<path d="M92.4958 24.8781C92.6496 24.6224 92.7905 24.3603 92.9571 24.1174C93.79 22.8901 94.9689 22.3787 96.4297 22.449C96.5963 22.4554 96.8077 22.449 96.8013 22.7175C96.8013 23.996 96.8013 25.2808 96.8013 26.5976C96.6668 26.5976 96.5515 26.6104 96.4361 26.5976C95.6865 26.5018 94.9433 26.4826 94.2193 26.7191C93.1814 27.0515 92.5855 27.9081 92.5791 29.097C92.5727 31.8202 92.5791 34.5369 92.5791 37.26C92.5791 37.3815 92.5791 37.5029 92.5791 37.6372C92.4573 37.6499 92.3741 37.6691 92.2908 37.6691C91.0414 37.6691 89.7856 37.6691 88.5362 37.6691C88.2864 37.6691 88.1902 37.6116 88.1902 37.3367C88.1967 32.6192 88.1967 27.9017 88.1902 23.1841C88.1902 22.9093 88.2671 22.8134 88.549 22.8198C89.7087 22.8326 90.8748 22.8326 92.0345 22.8198C92.3164 22.8198 92.3997 22.9157 92.3933 23.1905C92.3741 23.6444 92.3933 24.1046 92.3933 24.5649C92.3933 24.6672 92.4061 24.7758 92.4189 24.8781C92.4509 24.8781 92.4766 24.8845 92.5086 24.8909L92.4958 24.8781Z" fill="white"/>
</g>
<defs>
<clipPath id="clip0_5166_80249">
<rect width="90" height="20.1869" fill="white" transform="translate(19.5001 18)"/>
</clipPath>
</defs>
</svg>
