<svg width="128" height="56" viewBox="0 0 128 56" fill="none" xmlns="http://www.w3.org/2000/svg">
<g clip-path="url(#clip0_5227_82176)">
<path d="M14.0999 40.57C13.7499 40.49 13.3999 40.4 13.0499 40.34C9.30988 39.71 7.22988 37.37 6.45988 33.81C5.46988 29.27 6.16988 24.85 7.67988 20.52C8.05988 19.44 8.89988 18.87 9.97988 18.64C10.8699 18.44 11.3399 18.75 11.2799 19.66C11.1899 20.86 10.9999 22.05 10.7799 23.23C10.1399 26.82 9.93988 30.41 10.5799 34.02C10.6899 34.65 10.9199 35.28 11.1899 35.87C12.7799 39.23 17.0599 39.64 19.2799 36.66C20.3799 35.18 20.7899 33.44 21.1099 31.68C21.6099 28.94 21.5099 26.28 20.4599 23.65C20.1099 22.77 20.0999 21.72 20.1099 20.75C20.1099 19.91 20.5899 19.19 21.2799 18.67C22.2499 17.95 23.2499 18.19 23.6599 19.32C23.9699 20.17 24.2099 21.08 24.2899 21.98C24.6199 25.69 24.7299 29.42 23.6199 33.03C23.1899 34.44 22.4899 35.81 21.6799 37.04C20.4199 38.96 18.5399 40.07 16.2299 40.42C16.0399 40.45 15.8699 40.53 15.6899 40.59H14.0899L14.0999 40.57Z" fill="white"/>
<path d="M69.8699 36.87C70.8699 37.75 71.9099 37.87 73.0199 37.62C74.4499 37.3 75.5599 36.44 76.2799 35.24C77.2399 33.63 78.0299 31.92 78.8599 30.23C79.1099 29.71 79.2399 29.14 79.4699 28.61C79.6399 28.22 79.8399 27.81 80.1199 27.49C80.6299 26.91 81.1899 26.98 81.4799 27.68C81.8699 28.61 82.1599 29.59 82.4499 30.55C82.8499 31.89 83.1899 33.25 83.6099 34.58C83.8199 35.24 84.1099 35.89 84.4699 36.49C85.3199 37.91 86.3999 37.88 87.1899 36.42C87.9299 35.06 88.1999 33.61 87.7999 32.08C87.4699 30.82 87.3099 29.53 87.8099 28.31C88.0899 27.63 88.5599 26.93 89.1299 26.48C90.0599 25.76 91.1099 26.22 91.1699 27.38C91.2299 28.61 91.1199 29.89 90.8699 31.1C90.3399 33.68 89.3199 36.08 87.5699 38.1C86.6499 39.16 85.5699 39.99 84.0799 40.11C82.9999 40.19 82.1499 39.79 81.6399 38.87C81.2199 38.12 80.9399 37.29 80.6199 36.48C80.4099 35.94 80.2699 35.37 80.0299 34.85C79.7499 34.26 79.3599 34.17 78.8799 34.61C78.4699 34.98 78.1399 35.44 77.7499 35.84C76.8699 36.73 76.0299 37.68 75.0599 38.47C73.6499 39.62 71.9399 40.09 70.1399 40.21C68.9599 40.29 67.9199 39.93 67.0899 39.11C66.6899 38.72 66.4099 38.7 65.9199 38.97C65.1699 39.38 64.3499 39.73 63.5199 39.96C61.9399 40.39 60.5099 40.05 59.2999 38.88C57.6399 37.27 57.6499 37.24 55.7399 38.64C54.5799 39.48 53.3099 40 51.8699 40.18C50.4199 40.36 49.2199 39.95 48.3599 38.76C47.8699 38.08 47.4599 37.33 46.9899 36.63C46.4499 35.83 46.0099 35.79 45.3999 36.56C44.7999 37.32 44.2899 38.15 43.7099 38.92C42.3599 40.71 41.1799 40.65 40.0599 38.7C39.4999 37.72 39.0899 36.65 38.5699 35.64C38.2299 34.97 37.8999 34.29 37.4599 33.69C36.7999 32.78 36.0699 32.63 35.1399 33.26C34.1999 33.9 33.3299 34.63 32.4699 35.38C31.2099 36.48 30.0099 37.64 28.7599 38.74C28.2499 39.19 27.7099 39.6 27.1199 39.92C26.8299 40.08 26.2699 40.13 26.0599 39.95C25.8099 39.75 25.6699 39.24 25.7099 38.88C25.7899 38.19 26.0099 37.52 26.1899 36.84C26.7699 34.67 27.3299 32.5 27.9599 30.35C28.1099 29.82 28.3899 29.25 28.7699 28.86C29.3799 28.24 29.8599 28.45 30.0699 29.3C30.2999 30.21 30.5099 31.13 30.8299 32.01C31.1699 32.96 31.6399 33.04 32.2799 32.27C33.1499 31.23 33.9299 30.13 34.7899 29.08C35.2599 28.5 35.7599 27.93 36.3299 27.45C37.2099 26.68 37.8599 26.79 38.3499 27.83C38.8299 28.85 39.1499 29.95 39.5399 31.01C39.9799 32.21 40.3799 33.43 40.8799 34.6C41.2299 35.41 41.7699 36.18 42.7799 36.19C43.7599 36.19 44.1899 35.39 44.6799 34.69C45.2699 33.85 45.2699 32.88 45.4199 31.94C45.5699 31.04 45.7999 30.15 46.0699 29.28C46.1899 28.88 46.4599 28.5 46.7499 28.18C47.5399 27.32 48.5399 27.49 48.9899 28.56C49.5699 29.94 49.4599 31.35 49.0899 32.75C48.3299 35.62 50.5799 38 53.4799 37.35C54.7499 37.07 55.7199 36.32 56.4099 35.24C56.5499 35.02 56.5099 34.6 56.4099 34.31C54.9199 29.65 54.6999 24.97 56.3499 20.32C56.7499 19.2 57.3399 18.1 58.0699 17.17C59.3899 15.47 61.3899 15.62 62.6299 17.39C63.3599 18.44 63.5899 19.64 63.6699 20.88C63.9799 25.49 63.0299 29.8 60.6799 33.8C59.9599 35.04 59.9899 35.39 61.0499 36.37C61.7099 36.97 62.5099 37.49 63.3499 37.81C63.8699 38.02 64.5799 37.85 65.1799 37.75C65.6999 37.66 65.8799 37.33 65.7799 36.74C65.2999 33.79 66.0499 31.12 67.9299 28.82C68.4799 28.15 69.2499 27.6 70.0299 27.2C71.1399 26.63 72.2299 26.93 73.0299 27.9C74.2699 29.41 75.1999 32.08 72.9699 34.33C72.2399 35.06 71.3799 35.67 70.5799 36.32C70.3799 36.48 70.1599 36.62 69.8599 36.84L69.8699 36.87ZM58.1099 26.34C58.2799 27.96 58.3799 29.33 58.5999 30.69C58.6599 31.08 59.0499 31.41 59.2899 31.77C59.5699 31.47 59.9599 31.22 60.1199 30.86C61.3199 28.15 61.8399 25.29 61.6799 22.34C61.6499 21.75 61.5199 21.12 61.2599 20.6C61.0799 20.26 60.5999 19.91 60.2199 19.88C59.8899 19.86 59.4599 20.22 59.2099 20.52C58.9599 20.82 58.8199 21.25 58.7599 21.65C58.5099 23.29 58.3099 24.94 58.1199 26.35L58.1099 26.34ZM68.0299 33.32C68.1699 33.74 68.3999 34.54 68.7199 35.3C68.7799 35.45 69.2099 35.6 69.3999 35.54C71.1699 34.95 72.1299 32.42 71.2299 30.79C70.7799 29.97 70.0899 29.78 69.2899 30.28C68.3199 30.89 68.0899 31.85 68.0199 33.32H68.0299Z" fill="white"/>
<path d="M105.85 33.8301C105.73 34.0501 105.6 34.2601 105.48 34.4801C104.63 36.0701 103.59 37.5201 102.13 38.6201C100.5 39.8501 98.6599 40.4501 96.6099 40.1501C94.2799 39.8101 92.9399 38.5301 92.6199 36.2101C92.2899 33.7801 92.7599 31.5001 94.2999 29.5101C95.0799 28.5101 96.0499 27.7701 97.2999 27.4501C99.0299 27.0201 100.55 27.6901 101.48 29.2801C102.38 30.8201 102.24 32.6801 100.99 33.8801C100.36 34.4801 99.5399 34.9101 98.7599 35.3401C98.1499 35.6701 97.4499 35.8501 96.8199 36.1401C96.5899 36.2501 96.2699 36.5201 96.2799 36.7101C96.2799 36.9701 96.5099 37.3101 96.7499 37.4501C97.7399 38.0301 98.8099 38.0901 99.9099 37.7601C101.12 37.4001 102.04 36.6301 102.82 35.6901C104.3 33.9101 105.16 31.8301 105.8 29.6301C105.95 29.1101 106.19 28.5801 106.54 28.1701C107.16 27.4401 107.76 27.6001 107.93 28.5301C108.22 30.0901 108.39 31.6801 108.67 33.2401C108.76 33.7501 108.93 34.2801 109.18 34.7301C109.5 35.3101 109.97 35.2901 110.27 34.7001C110.66 33.9301 110.92 33.0801 111.34 32.3201C112.12 30.8901 112.84 29.3901 113.84 28.1001C115.24 26.3001 117.18 25.5101 119.51 25.9801C120.93 26.2701 121.81 27.2601 121.8 28.4901C121.8 29.3801 121.32 30.0401 120.51 30.2901C119.65 30.5601 118.65 30.2401 118.18 29.5601C117.41 28.4401 116.71 28.2601 115.67 29.1901C114.88 29.9001 114.14 30.7701 113.64 31.7001C112.57 33.7001 111.66 35.7801 110.68 37.8201C110.4 38.4101 110.13 39.0101 109.77 39.5401C109.13 40.4801 108.19 40.4701 107.73 39.4401C107.22 38.2801 106.93 37.0301 106.56 35.8101C106.37 35.1601 106.23 34.4901 106.06 33.8201H105.87L105.85 33.8301ZM95.1799 33.0801C95.2599 33.6901 95.2899 34.1501 95.3999 34.5901C95.4399 34.7401 95.6699 34.9301 95.8199 34.9301C97.0599 34.9501 98.8699 33.4301 99.0899 32.2201C99.2899 31.1401 98.7699 30.0801 97.9199 29.8301C96.9699 29.5601 95.9699 30.0801 95.5899 31.1801C95.3599 31.8301 95.2899 32.5301 95.1799 33.0801Z" fill="white"/>
<path d="M48.7699 16.97C49.9399 16.97 50.7199 17.76 50.7199 18.92C50.7199 20.43 49.6299 21.72 48.3599 21.71C47.2299 21.71 46.4799 20.87 46.4699 19.61C46.4499 18.17 47.4999 16.97 48.7699 16.97Z" fill="white"/>
</g>
<defs>
<clipPath id="clip0_5227_82176">
<rect width="115.78" height="24.57" fill="white" transform="translate(5.99988 16)"/>
</clipPath>
</defs>
</svg>
