<svg width="129" height="56" viewBox="0 0 129 56" fill="none" xmlns="http://www.w3.org/2000/svg">
<rect width="83.0001" height="44.2667" transform="translate(22.5001 6)" fill="white" fill-opacity="0.01"/>
<g clip-path="url(#clip0_5166_80253)">
<path d="M53.0092 20.1102L46.493 31.0978V38.4889C47.2431 40.2674 49.139 40.5043 50.9558 40.5836V41.6111H38.1993V40.5836C40.016 40.5043 42.2277 40.228 42.82 39.0424V31.4139L36.1851 20.1891C35.04 18.2919 33.9342 17.6598 31.7224 17.5016V16.474H42.8201V17.5016C40.7268 17.62 40.0556 18.0156 39.4633 18.49L45.6242 29.161L51.6667 18.5292C51.0348 18.055 50.2055 17.62 48.1124 17.5017V16.4742H57.5906V17.5017C55.4579 17.5808 54.1151 18.2919 53.0092 20.1102ZM65.9629 41.9668C63.8305 41.9668 62.8035 40.5043 62.7246 39.477C61.3816 40.8997 59.6442 41.9668 57.9855 41.9668C55.8528 41.9668 54.0359 40.6624 54.0359 38.4101C54.0359 37.303 54.3125 36.1568 54.8655 35.2479L62.7246 32.4021V29.4773C62.7246 27.6989 61.8951 25.9993 60.1179 25.9993C59.0516 25.9993 58.0248 27.3033 57.946 29.3193L54.3913 29.9118V29.517C55.576 25.9595 59.4861 24.5765 61.3815 24.5765C64.9755 24.5765 66.2787 26.4734 66.2393 29.3982L66.121 37.6981C66.0814 39.3186 66.9501 39.7138 67.7402 39.7138C68.3719 39.7138 69.0037 39.3186 69.7544 38.5678V39.7138C68.8856 40.7417 67.3455 41.9668 65.9629 41.9668ZM58.0644 35.5245C57.9064 36.1568 57.7881 36.7101 57.7881 37.5797C57.7881 38.7653 58.4595 39.9508 59.7626 39.9508C60.9474 39.9508 61.6188 39.556 62.6852 38.7258L62.7246 33.3898C61.6978 33.8642 59.1704 34.9712 58.0644 35.5245ZM70.1099 41.6111V40.7019C71.887 40.5834 72.4001 40.1883 72.7166 39.516V19.0427C72.7166 17.6989 72.5189 17.1458 69.7939 16.9085V16.1182L77.0214 14.3L77.2581 14.9723L76.113 16.395V39.5161C76.5079 40.3068 77.2581 40.5836 78.8774 40.702V41.6112H70.1099V41.6111ZM88.3555 41.9273C84.2089 41.9273 81.0098 38.6468 81.0098 34.062C81.0098 28.4495 84.446 24.6156 89.3037 24.6156C93.2134 24.6156 95.3856 26.8295 95.3856 30.3468V31.0582L84.7224 30.9793C84.6436 31.4139 84.6037 32.1257 84.6037 32.9949C84.6037 37.0263 87.1314 39.6744 90.4886 39.6744C92.5024 39.6744 93.5295 38.9629 95.1089 37.6192L95.7014 38.528C93.4505 40.5836 91.5942 41.9273 88.3555 41.9273ZM88.7114 25.8413C86.7364 25.8413 85.3545 27.422 84.8804 29.9118L91.8317 29.8329C91.8315 27.7382 90.5279 25.8413 88.7114 25.8413Z" fill="white"/>
</g>
<defs>
<clipPath id="clip0_5166_80253">
<rect width="63.9792" height="27.6667" fill="white" transform="translate(31.7224 14.3)"/>
</clipPath>
</defs>
</svg>
